<svg width="21" height="21" fill="none" xmlns="http://www.w3.org/2000/svg"><path d="M10.91 6.901c-2.2 0-4 1.8-4 4s1.8 4 4 4 4-1.8 4-4-1.8-4-4-4zm0 6c-1.1 0-2-.9-2-2s.9-2 2-2 2 .9 2 2-.9 2-2 2zm9.5-3.9-1.3-.6c0-.2-.1-.3-.2-.5l.7-1.2c.2-.3.2-.6 0-.9-.4-.7-.8-1.3-1.3-1.8-.2-.2-.6-.4-.9-.3l-1.3.3c-.1-.1-.3-.2-.4-.3l-.1-1.4c0-.3-.2-.6-.5-.7-.7-.3-1.4-.5-2.1-.7-.3-.1-.7 0-.9.3l-.9 1.1h-.5l-1-1c-.2-.3-.5-.4-.8-.3-.8.1-1.5.4-2.2.7-.3.1-.5.4-.5.7l-.1 1.4c-.1.1-.3.2-.4.3l-1.3-.3c-.3-.1-.7 0-.9.3-.5.5-1 1.1-1.3 1.8-.2.3-.2.6 0 .9l.7 1.2c-.1.2-.1.3-.2.5l-1.3.5c-.3.2-.5.5-.5.9v2c0 .4.2.7.5.8l1.3.6c0 .2.1.3.2.5l-.7 1.2c-.2.3-.2.6 0 .9.4.7.8 1.3 1.3 1.8.2.2.6.4.9.3l1.3-.3c.1.1.3.2.4.3l.1 1.4c0 .3.2.6.5.7.7.3 1.4.5 2.1.7.3.1.7 0 .9-.3l.9-1.1h.4l.9 1.1c.2.2.4.3.7.3h.2c.7-.2 1.4-.4 2.1-.7.3-.1.5-.4.5-.7l.1-1.4c.1-.1.3-.2.4-.3l1.3.3c.3.1.7 0 .9-.3.5-.6.9-1.2 1.3-1.8.2-.3.2-.6 0-.9l-.5-1.2c.1-.2.1-.3.2-.5l1.3-.6c.3-.1.5-.5.5-.8v-2c0-.4-.2-.7-.5-.9zm-1.5 2.2-1.5.7-.3.9c0 .1-.1.3-.1.4l-.3.9.8 1.4c-.1.2-.2.3-.3.5l-1.6-.4-.7.5c-.1.1-.2.2-.3.2l-.8.6-.2 1.7c-.2.1-.3.1-.5.2l-1.1-1.3h-2.2l-1.1 1.3c-.2-.1-.4-.1-.5-.2l-.2-1.7-.8-.5c-.1-.1-.2-.1-.3-.2l-.7-.6-1.6.3c-.1-.2-.2-.3-.3-.5l.8-1.4-.3-.9c0-.1-.1-.3-.1-.4l-.3-.8-1.5-.7v-.6l1.5-.7.3-.9c0-.1.1-.3.1-.4l.3-.9-.9-1.4c.1-.1.2-.3.4-.4l1.6.4.7-.6c.1-.1.2-.2.3-.2l.8-.6.2-1.7c.2-.1.3-.1.5-.2l1.1 1.3h2.3l1.1-1.3c.2.1.4.1.5.2l.1 1.7.8.5c.1.1.2.2.3.2l.7.6 1.6-.3c.1.2.2.3.3.5l-.8 1.4.3.9c0 .1.1.3.1.4l.3.8 1.5.7v.6z" fill="#000"/></svg>