<svg width="21" height="20" fill="none" xmlns="http://www.w3.org/2000/svg"><path d="M17.9 14.901c-.2-.1-2.3-1-2.3-3.5 0-2 1.5-3.1 1.9-3.3v-.2c-1.1-1.6-2.8-1.9-3.4-1.9h-.3c-.8 0-1.5.3-2.1.5-.4.2-.8.3-1 .3-.3 0-.6-.1-1.1-.3-.6-.2-1.2-.5-1.9-.5-1.6 0-3 .9-3.9 2.3-1.5 2.7-.6 6.8 1.1 9.3.9 1.3 1.8 2.4 2.9 2.4h.1c.6 0 1-.2 1.3-.4.4-.2.9-.4 1.6-.4.7 0 1.1.2 1.5.4.4.2.8.4 1.5.3 1.3 0 2.2-1.2 2.9-2.3.8-1.1 1.1-2.2 1.3-2.6 0 0 0-.1-.1-.1zm-7.7-9.9h.2c1 .1 2-.5 2.7-1.4.7-1 1-2.3.9-3.4 0-.1-.1-.2-.2-.2-1 0-2.2.6-2.8 1.5-.6.7-1.1 2-.9 3.3-.1.1 0 .2.1.2z" fill="#000"/></svg>