<svg width="19" height="18" fill="none" xmlns="http://www.w3.org/2000/svg"><mask id="a" style="mask-type:luminance" maskUnits="userSpaceOnUse" x="0" y="-1" width="19" height="19"><path d="M.695-.009h18v18h-18v-18z" fill="#fff"/></mask><g mask="url(#a)"><path d="M7.328 17.703a1.917 1.917 0 0 1-.727-3.681 1.908 1.908 0 0 1 2.077.414c.355.36.554.844.558 1.35a1.917 1.917 0 0 1-1.908 1.917zm6.66 0a1.917 1.917 0 0 1-.727-3.681 1.908 1.908 0 0 1 2.077.414c.355.36.554.844.558 1.35a1.917 1.917 0 0 1-1.908 1.917zM1.586 4.203a.9.9 0 0 1-.639-1.539.9.9 0 0 1 .63-.279h1.089a1.8 1.8 0 0 1 1.8 1.44l1.188 5.4a1.8 1.8 0 0 0 1.8 1.44H14.6l1.377-5.517h-2.592a.9.9 0 0 1-.621-.279.897.897 0 0 1 0-1.278.9.9 0 0 1 .621-.279h2.592a1.863 1.863 0 0 1 1.44.702c.171.223.29.481.351.756.064.272.064.556 0 .828L16.4 11.115a1.8 1.8 0 0 1-.657.999 1.8 1.8 0 0 1-1.125.387H7.472a3.672 3.672 0 0 1-2.295-.801 3.717 3.717 0 0 1-1.278-2.079l-1.197-5.4-1.116-.018zM11.63 2.052l-1.602-.135a.423.423 0 0 1-.342-.243L9.056.198a.405.405 0 0 0-.738 0l-.63 1.485a.423.423 0 0 1-.342.243l-1.602.135a.405.405 0 0 0-.234.711l1.251 1.053a.396.396 0 0 1 .126.405l-.36 1.548a.405.405 0 0 0 .594.441l1.386-.837a.423.423 0 0 1 .414 0l1.386.828a.405.405 0 0 0 .603-.432l-.36-1.557a.394.394 0 0 1 .126-.405l1.215-1.035a.405.405 0 0 0-.261-.693v-.036z" fill="#FFB801"/></g></svg>