<svg width="121" height="28" fill="none" xmlns="http://www.w3.org/2000/svg"><g clip-path="url(#a)"><path d="M29.373 16.623c-1.5 5.9-7.4 9.4-13.3 8-5.9-1.5-9.4-7.4-8-13.3 1.5-5.9 7.4-9.4 13.3-8 5.9 1.5 9.4 7.5 8 13.3z" fill="#F7931A"/><path d="M23.573 12.423c.2-1.5-.9-2.2-2.4-2.8l.5-2-1.2-.3-.5 1.9c-.3-.1-.6-.2-1-.2l.5-1.9-1.2-.3-.5 2c-.3-.1-.5-.1-.8-.2l-1.7-.4-.3 1.3.9.2c.5.1.6.4.6.7l-.6 2.3-.8 3.2c-.1.1-.2.4-.6.3l-.9-.2-.6 1.4 1.6.4c.3.1.6.1.9.2l-.5 2 1.2.3.5-2c.3.1.6.2 1 .2l-.5 2 1.2.3.5-2c2.1.4 3.6.2 4.2-1.6.5-1.5 0-2.4-1.1-2.9.8-.3 1.4-.8 1.6-1.9zm-2.8 3.9c-.4 1.5-2.9.7-3.7.5l.7-2.6c.8.1 3.4.5 3 2.1zm.4-3.9c-.3 1.4-2.4.7-3.1.5l.6-2.4c.7.2 2.8.5 2.5 1.9zm18.7-2.7c.9 0 1.7.2 2.3.5.6.3 1.2.7 1.6 1.3.4.5.7 1.2.9 1.9.2.7.3 1.5.3 2.3 0 1.3-.2 2.5-.7 3.6-.5 1.1-1.1 2.1-1.9 3-.8.8-1.8 1.5-2.9 2-1.1.5-2.3.7-3.6.7h-.9c-.4 0-.9-.1-1.4-.1-.5-.1-1.1-.2-1.7-.3-.6-.1-1.2-.4-1.7-.6l4.8-20.2 4.3-.7-1.7 7.2c.4-.2.7-.3 1.1-.4.4-.2.8-.2 1.2-.2zm-3.6 11.8c.6 0 1.3-.2 1.8-.5.6-.3 1.1-.7 1.5-1.3.4-.5.7-1.1 1-1.8.2-.7.4-1.4.4-2.1 0-.9-.1-1.6-.4-2.1-.3-.5-.8-.7-1.6-.7-.3 0-.6 0-1 .1s-.8.3-1.1.6l-1.8 7.6c.1 0 .2 0 .3.1h.6c-.1.1.1.1.3.1zm13.2 3.1h-4.1l3.5-14.6h4.1l-3.5 14.6zm2-16.4c-.6 0-1.1-.2-1.6-.5s-.7-.9-.7-1.6c0-.4.1-.8.2-1.1l.6-.9.9-.6c.3-.1.7-.2 1.1-.2.6 0 1.1.2 1.6.5s.7.9.7 1.6c0 .4-.1.8-.2 1.1l-.6.9-.9.6c-.3.1-.7.2-1.1.2zm5.1-1.9 4.3-.7-1.1 4.3h4.6l-.8 3.4h-4.6l-1.2 5.1c-.1.4-.2.8-.2 1.2 0 .4 0 .7.1 1 .1.3.3.5.6.6.3.1.7.2 1.2.2.4 0 .9 0 1.3-.1s.8-.2 1.3-.3l.3 3.2c-.6.2-1.2.4-1.8.5-.6.1-1.4.2-2.3.2-1.3 0-2.3-.2-3-.6-.7-.4-1.2-.9-1.5-1.6-.3-.7-.4-1.4-.4-2.3 0-.9.2-1.7.4-2.7l2.8-11.4zm7.7 12.4c0-1.3.2-2.4.6-3.6.4-1.1 1-2.1 1.7-2.9.8-.8 1.7-1.5 2.8-2 1.1-.5 2.3-.7 3.6-.7.8 0 1.6.1 2.2.2.7.2 1.3.4 1.8.6l-1.4 3.2c-.4-.2-.8-.3-1.2-.4-.4-.1-.9-.2-1.5-.2-1.4 0-2.5.5-3.3 1.4-.8.9-1.2 2.2-1.2 3.8 0 .9.2 1.7.6 2.3.4.6 1.2.9 2.2.9.5 0 1.1-.1 1.6-.2s.9-.3 1.3-.4l.3 3.3c-.5.2-1.1.4-1.7.5-.6.2-1.4.2-2.2.2-1.1 0-2.1-.2-2.9-.5-.8-.3-1.5-.8-2-1.3-.5-.6-.9-1.2-1.1-2-.1-.5-.2-1.3-.2-2.2zm18.2 6.2c-1 0-1.8-.1-2.6-.4-.7-.3-1.3-.7-1.8-1.2s-.8-1.2-1.1-1.9c-.2-.7-.4-1.5-.4-2.4 0-1.1.2-2.2.5-3.3.4-1.1.9-2.1 1.6-3 .7-.9 1.6-1.6 2.6-2.2 1-.6 2.2-.8 3.5-.8 1 0 1.8.1 2.5.4.7.3 1.3.7 1.8 1.2s.8 1.2 1.1 1.9c.2.7.4 1.5.4 2.4 0 1.1-.2 2.2-.5 3.3-.3 1.1-.9 2.1-1.6 3-.7.9-1.5 1.6-2.6 2.2-.8.6-2 .8-3.4.8zm2.1-11.8c-.6 0-1.1.2-1.6.5-.5.4-.9.8-1.2 1.3-.3.5-.6 1.1-.7 1.8-.2.6-.2 1.2-.2 1.8 0 .9.1 1.6.4 2.2.3.5.8.8 1.6.8.6 0 1.1-.2 1.6-.5.5-.4.8-.8 1.2-1.3.3-.5.6-1.1.7-1.8.2-.6.2-1.2.2-1.8 0-.9-.1-1.6-.4-2.2-.3-.6-.8-.8-1.6-.8zm10.6 11.5h-4.1l3.5-14.6h4.1l-3.5 14.6zm2-16.4c-.6 0-1.1-.2-1.6-.5s-.7-.9-.7-1.6c0-.4.1-.8.2-1.1l.6-.9.9-.6c.3-.1.7-.2 1.1-.2.6 0 1.1.2 1.6.5s.7.9.7 1.6c0 .4-.1.8-.2 1.1l-.6.9-.9.6c-.3.1-.7.2-1.1.2zm4.5 2.4c.3-.1.7-.2 1-.3.4-.1.8-.2 1.3-.3.5-.1 1-.2 1.6-.3.6-.1 1.2-.1 2-.1 2.2 0 3.7.6 4.5 1.9.8 1.3 1 3 .4 5.2l-1.9 7.9h-4.1l1.8-7.7c.1-.5.2-.9.3-1.4.1-.5.1-.8 0-1.2-.1-.3-.2-.6-.5-.8-.3-.2-.7-.3-1.2-.3s-1.1.1-1.6.2l-2.7 11.3h-4.1l3.2-14.1z" fill="#fff"/></g><defs><clipPath id="a"><path fill="#fff" transform="translate(.48 .828)" d="M0 0h120v27H0z"/></clipPath></defs></svg>