<svg width="25" height="25" viewBox="0 0 25 25" fill="none" xmlns="http://www.w3.org/2000/svg">
<path d="M14.425 23.2204C15.145 23.2204 15.775 22.5784 15.775 21.8434V18.6274H16.675C17.215 18.6274 17.575 18.2594 17.575 17.7074V8.52236H6.77499V17.7084C6.77499 18.2594 7.13499 18.6274 7.67499 18.6274H8.57499V21.8434C8.57499 22.5784 9.20499 23.2204 9.92499 23.2204C10.645 23.2204 11.275 22.5784 11.275 21.8434V18.6274H13.075V21.8434C13.075 22.5784 13.705 23.2204 14.425 23.2204ZM19.826 17.7084C20.546 17.7084 21.175 17.0664 21.175 16.3304V9.89836C21.175 9.16736 20.547 8.52236 19.826 8.52236C19.106 8.52236 18.476 9.16736 18.476 9.89836V16.3304C18.476 17.0664 19.106 17.7084 19.826 17.7084ZM4.52399 17.7074C5.24399 17.7074 5.87399 17.0664 5.87399 16.3304V9.89836C5.87399 9.16736 5.24399 8.52236 4.52399 8.52236C3.80399 8.52236 3.17499 9.16736 3.17499 9.89836V16.3304C3.17499 17.0664 3.80299 17.7074 4.52399 17.7074ZM16.495 1.35936C16.4552 1.31553 16.4066 1.28052 16.3524 1.25655C16.2983 1.23259 16.2397 1.22021 16.1805 1.22021C16.1213 1.22021 16.0627 1.23259 16.0085 1.25655C15.9544 1.28052 15.9058 1.31553 15.866 1.35936L14.658 2.58836L14.602 2.64536C13.886 2.27936 13.082 2.09536 12.188 2.09436H12.162C11.267 2.09636 10.464 2.27936 9.74799 2.64436L8.48399 1.36036C8.44415 1.31653 8.3956 1.28152 8.34144 1.25755C8.28728 1.23359 8.22871 1.22121 8.16949 1.22121C8.11026 1.22121 8.05169 1.23359 7.99754 1.25755C7.94338 1.28152 7.89482 1.31653 7.85499 1.36036C7.81229 1.402 7.77836 1.45176 7.75519 1.50672C7.73203 1.56168 7.72009 1.62072 7.72009 1.68036C7.72009 1.74 7.73203 1.79904 7.75519 1.85399C7.77836 1.90895 7.81229 1.95871 7.85499 2.00036L9.02499 3.19436C8.64799 3.45036 8.30699 3.76436 8.00999 4.12436C7.26987 5.02959 6.83978 6.14845 6.78299 7.31636L6.78099 7.35436C6.77707 7.4373 6.77507 7.52032 6.77499 7.60336H17.577C17.577 7.51936 17.575 7.43636 17.571 7.35336L17.569 7.31636C17.5123 6.14842 17.0822 5.02952 16.342 4.12436C16.0491 3.76815 15.7074 3.45506 15.327 3.19436L16.495 2.00036C16.5378 1.9587 16.5719 1.90887 16.5952 1.85382C16.6184 1.79877 16.6304 1.73962 16.6304 1.67986C16.6304 1.6201 16.6184 1.56094 16.5952 1.50589C16.5719 1.45084 16.5378 1.40101 16.495 1.35936ZM9.92299 5.99636C9.74228 5.99451 9.5697 5.92102 9.44314 5.79202C9.31658 5.66302 9.24639 5.48906 9.24799 5.30836C9.24799 4.92836 9.55099 4.61836 9.92299 4.61836C10.296 4.61836 10.598 4.92836 10.598 5.30836C10.598 5.68836 10.296 5.99636 9.92299 5.99636ZM14.427 5.99636C14.2463 5.99451 14.0737 5.92102 13.9471 5.79202C13.8206 5.66302 13.7504 5.48906 13.752 5.30836C13.752 4.92836 14.054 4.61836 14.427 4.61836C14.799 4.61836 15.102 4.92836 15.102 5.30836C15.102 5.68836 14.799 5.99636 14.427 5.99636Z" fill="#D2EEED"/>
</svg>
