<svg width="24" height="25" viewBox="0 0 24 25" fill="none" xmlns="http://www.w3.org/2000/svg">
<path fill-rule="evenodd" clip-rule="evenodd" d="M4 4.29004H20C20.2652 4.29004 20.5196 4.3954 20.7071 4.58293C20.8946 4.77047 21 5.02482 21 5.29004V16.29C21 16.5553 20.8946 16.8096 20.7071 16.9971C20.5196 17.1847 20.2652 17.29 20 17.29H6.75L3.162 20.16C3.14729 20.1717 3.12961 20.1789 3.11098 20.181C3.09234 20.183 3.07351 20.1798 3.05662 20.1717C3.03973 20.1635 3.02546 20.1508 3.01545 20.135C3.00544 20.1191 3.00009 20.1008 3 20.082V5.29004C3 5.02482 3.10536 4.77047 3.29289 4.58293C3.48043 4.3954 3.73478 4.29004 4 4.29004ZM6 7.79004H18V9.79004H6V7.79004ZM16 13.79H6V11.79H16V13.79Z" fill="#3B6F6D"/>
</svg>
