<svg width="50" height="57" fill="none" xmlns="http://www.w3.org/2000/svg"><path d="M49.78 52.828c0 1.8-1.5 3.4-3.4 3.4H4.18c-1.9 0-3.4-1.5-3.4-3.4v-49.2c0-1.9 1.5-3.4 3.4-3.4h42.2c1.9 0 3.4 1.5 3.4 3.4v49.2z" fill="#428CDC"/><path d="M15.98 38.328c-1.8 0-2 .1-3 1.3l-7.5 9.1c3.5 0 3.4.1 4.4-1.2l.6-.7h6.4l.2.7c.2.8.2 1.1 1.6 1.2h1.8l-2.7-10.4h-1.8zm-4.1 6.7 3.7-4.8 1 4.8h-4.7zm20.3-5.1c.3-.1.4-.3.5-.6.1-.2.2-.5.3-1.1h-9c-2 0-2.1.1-2.7 1.9h4l-2 6.9c-.4 1.6-.3 1.6 2.6 1.6l2.4-8.5h1.8c1.2.1 1.7 0 2.1-.2zm13 1.8c.4-1.5.4-3.4-5.2-3.4h-4.1c-1.5.1-1.6.8-1.8 1.6l-2 7.1c-.2.8-.3 1.2 0 1.4.5.3 2 .2 2.6.2l.5-1.7.5-1.8h2.5c5.6.1 6.5-1.9 7-3.4zm-3.2 0c-.5 1.7-.5 1.7-3.4 1.7h-2.4l.9-3.2h2.4c2.7 0 2.7.8 2.5 1.5zm-31.1 8.9-1.2 1.8-.2-1.8c0-.1 0-.3-.2-.4-.2-.1-.7 0-.9 0l-1.6 2.3-.2-1.8c0-.1 0-.3-.2-.4-.2-.2-.6-.1-.8-.1l.5 3.1h.4c.7 0 .7 0 1-.5l1.3-1.8.3 2.3h.5c.2 0 .4 0 .5-.1l.4-.4 1.9-2.7c-1.2.1-1.2 0-1.5.5zm3.6-.5c-1.7 0-2.3.8-2.6 1.6-.2.8-.1 1.6 1.7 1.6 1.7 0 2.3-.8 2.6-1.6.2-.8 0-1.6-1.7-1.6zm.7 1.6c-.3 1-.3 1-1.5 1-1 0-1.1-.4-.9-1 .3-1 .3-1 1.5-1 1 0 1.1.4.9 1zm3.6-1.5h-1.2c-.5 0-.5.2-.5.5l-.6 2.1c-.1.2-.1.4 0 .4.1.1.6.1.8.1l.4-1.3.4-1.3h.7c.8 0 .8.2.8.4 0 .1-.1.3-.2.4-.1.1-.4 0-.8 0h-.3c-.4 0-.5.3-.4.5l.8.9c.3.3.4.3.9.3h.6l-1.2-1.2c.7 0 1.4-.3 1.6-1-.1-.3-.1-.8-1.8-.8zm3.7 2.5h-.9l.6-2.1c.1-.2.1-.4 0-.4-.1-.1-.6-.1-.8-.1l-.8 2.6c-.1.5 0 .5.6.5h1.8c0-.1.2-.4 0-.5h-.5zm3.7-2.5h-.9c-.8 0-.8 0-1 .5l-.5 1.6-.1.5c0 .1-.1.3 0 .4.1.1.3.1.7.1h.8c1.4 0 2.3-.6 2.6-1.6.2-1-.3-1.5-1.6-1.5zm.6 1.5c-.3 1-.3 1-1.6 1h-.6l.6-2h.6c.9 0 1.3.2 1 1zm6-1.2c0-.1.1-.1.1-.3h-2.7c-.6 0-.6 0-.8.6h1.2l-.6 2.1c-.1.5-.1.5.8.5l.7-2.6h.5c.3 0 .5 0 .6-.1l.2-.2zm2.3-.4c-1.7 0-2.4.8-2.6 1.6-.2.8-.1 1.6 1.7 1.6 1.7 0 2.3-.8 2.6-1.6.2-.8.1-1.6-1.7-1.6zm.8 1.6c-.3 1-.3 1-1.5 1-1 0-1-.4-.9-1 .3-1 .3-1 1.5-1 1 0 1 .4.9 1zm5.5-1.5c-.1-.1-.6 0-.8 0l-.7 2.5h-1c-.8 0-.9-.3-.7-.8l.4-1.3c.1-.2.1-.3 0-.4-.1-.1-.6-.1-.8-.1l-.5 1.7c-.3 1 .1 1.4 1.5 1.4h1.4c.2 0 .4-.1.5-.2 0-.1.1-.2.1-.3l.6-2.1c.1-.2.1-.3 0-.4zm2.3 0h-1.2c-.5 0-.5.2-.5.5l-.6 2.1c-.1.2-.1.4 0 .4.1.1.6.1.8.1l.4-1.3.4-1.3h.7c.8 0 .8.2.8.4 0 .1-.1.3-.2.4-.1.1-.4 0-.8 0h-.3c-.4 0-.5.3-.4.5l.8.9c.3.3.4.3.9.3h.6l-1.3-1.1c.7 0 1.4-.3 1.6-1 0-.4 0-.9-1.7-.9zm.9-1.5.3-1.3h.5l.1-.3h-1.4l-.1.3h.5l-.3 1.3h.4zm2.4-1.6-.6 1.2-.1-1.2h-.5l-.4 1.7h.3l.3-1.3.2 1.3h.3l.7-1.3-.4 1.2h.4l.3-1.7h-.5v.1zm-40.9-25.4.4-.9.1.1s-.1.1-.1.2c.1.2.1.2.1.3.1.1.1.1.2.3v.6s.1.1.1.2c0 .2.1.3.2.6 0 .1.1.1.1.1.5 1 1.6 4.1 3.3 5.6 0 0 .6.1 1.2.5v.1l-.1.2s.4.2.7.4c.3.2 1.8 1 2.6 1.4l.4 2.3h.3c-3.7 1-7.1 2.4-10 4.3 5.6-2.6 12.5-4.1 19.9-4.1 7.4 0 14.2 1.5 19.9 4.1-4.2-2.8-9.5-4.7-15.3-5.3.4-.9 1.3-1.3 1.3-1.3.3-.2 2.9-.5 2.9-.5v-.2c3.2-.7 4.8-1.9 4.8-1.9.6-.1.7-.3.7-.3.1-.1.5-.4.5-.4 1.8-1.2 3.8-4.7 3.8-4.7.4.1.5-.3.5-.3.2-.2 1.1-1.4 1.1-1.4.3-.2.1-.4.1-.4l-.2-.1v-.1c.1-.1.3-.6.4-.7.1-.1.3-.7.3-.7.1-.2.3-.8.3-.8.2-.3.2-.6.2-.6-.1-.3-.5-.4-.5-.4 0-.3-.5-.4-.5-.4 0-.3-.5-.3-.5-.3-.1-.2-.5-.2-.5-.2-.2-.3-.5 0-.5 0-.1.2-.3.2-.3.2-.5 0-.6.3-.6.3l-.1.4c-.3.7-.1.9-.1.9l.2.4.2 1c-.3 0-.3.4-.3.4-.1.3-1 1.3-1 1.3-.3.1-.1.5-.1.5-.9.8-1.4 1-1.4 1-1.9 1.2-3.3 2.8-3.3 2.8-1.2-.2-2.7.1-2.7.1v-.2c-.8.2-1.7.7-1.7.7-.2.1-.6 0-.6 0-1.3-.7-3.6-.5-3.6-.5-1.2.3-1.4.4-1.4.4l-2.2.1-.1-.4c0-.1-.2-.2-.2-.2 0-.1 0-.3-.1-.4l-.1-1.3.6-.7c.2 0-.1-1.8-.1-1.8.1-.3-.4-1.3-.4-1.3.1-.8-.4-1.3-.4-1.3s-.3-.4-.4-.7c-.1-.3-.9-.7-1.4-.9-.6-.2-1.6 0-2.8.8-1.2.8-1.4 2.4-1.4 2.6 0 .2.4 1.4.4 1.5-.1 0-.3-.1-.1.6.2.7 1 1.2 1 1.2.2.1.5 1.2.7 1.7h-.4l-.1.2-.3.2c-.1 0-.4.1-.7.1-.3-.1-1.5-.4-3.2-.1l-1.7-.9-.1.2c-.5-.1-1-.2-1.6-.2 0 0-1.3-2.5-2.4-3.4v-.1c.1-.1 0-.3 0-.5 0-.1-.4-.5-.4-.5l-.5-.8s-.2-.4-.2-.6c-.1-.2-.3-.1-.3-.1-.1-.3-.1-.5 0-.6.1-.1.5-1.6.5-1.9 0-.2-.4-1.1-.5-1.3.5-.4 1.5-1.3 1.7-1.4 1.9-1.1 3.6-2.6 4.4-4.7 1.2-3.3.6-6.1-1.5-7.2h-.3c-2.1-.7-4.4.4-5.9 3.6-.9 2-1 4.2-.5 6.5.1.5.1 1.2.1 2v.1l-.6.1c-.2.1-.2.3-.2.3l.2 1c-.1 0-.3.1-.3.4-.3.1-.3.5-.3.5-.4.1-.3.5-.3.5-.3.2-.1.5 0 .6.1.2.5 1.1.5 1.1l-.5 1.3c-.6 1.5-1.2 2.9-1.2 2.9l-.1.1h-.1l-.1.2c.2.3.5.4.8.6.3.2.5.2.6.2.1-.1.1-.2.1-.2v-.2s.4-1.2 1-2.5zm3.4-7c0 .1-.1.2-.3.3 0 0-.7.6-1 .9h-.4l-.2-.1c0-.4-.4-.7-.4-.7v-1.5c0-.1.1-.1.1-.1l.3.3c.2.1.3.3.7.4.4.2.5.2.7.2h.3c.1 0 .1 0 .2.1v.2zm-1.7-8c.5-1.2 2.3-4.5 4.9-3.3 2.4 1.1 2.2 4.3 1.2 6.4-1.4 3-3.5 4.9-5.5 3.8-2-1.3-1.3-5-.6-6.9z" fill="#E3F2FF"/></svg>