<svg width="62" height="57" fill="none" xmlns="http://www.w3.org/2000/svg"><path d="M.694 15.738v26.434H6.31V30.456h7.94V25.13H6.31v-5.906h9.489v-5.422H2.63c-1.356 0-1.937.58-1.937 1.936zm17.138.097v26.433h5.616v-28.37h-3.68c-1.355 0-1.936.581-1.936 1.937zm21.592 12.103c1.356-.58 3.292-2.13 3.292-6.68 0-3.874-2.71-7.456-8.327-7.456h-6.197c-1.355 0-1.936.58-1.936 1.936v26.53h8.52c4.648 0 8.134-2.71 8.134-8.036 0-3.873-2.13-5.713-3.486-6.294zm-5.422 9.392h-2.517v-7.068h2.517c1.937 0 3.292 1.162 3.292 3.486 0 2.42-1.355 3.582-3.292 3.582zm0-11.716h-2.517V18.74h2.517c1.937-.194 3.292.968 3.292 3.292 0 2.42-1.355 3.582-3.292 3.582zm19.559-12.393c-6.972 0-8.133 5.519-8.133 7.649v21.302h5.615v-9.586h5.229v9.682h5.422V20.967c0-2.227-1.162-7.746-8.133-7.746zm2.324 14.136H50.85v-5.906c0-1.162.387-3.099 2.517-3.099s2.518 1.937 2.518 3.099v5.906z" fill="#428CDC"/></svg>