<svg width="100" height="57" fill="none" xmlns="http://www.w3.org/2000/svg"><path d="M12.084 14.01H5.659c-2.422 0-4.318 1.896-4.318 4.318v19.8c0 2.422 1.896 4.318 4.318 4.318h6.425c2.422 0 4.318-1.896 4.318-4.318v-19.8c0-2.422-2.001-4.318-4.318-4.318z" fill="#D7E9F9"/><path d="M15.454 38.13V27.28c-4.423 1.159-13.376 4.002-13.376 7.267v3.581c0 1.896 1.58 3.476 3.476 3.476h6.425c1.895 0 3.475-1.58 3.475-3.476z" fill="#428CDC"/><mask id="a" style="mask-type:luminance" maskUnits="userSpaceOnUse" x="2" y="27" width="14" height="15"><path d="M15.454 38.13V27.28c-4.423 1.159-13.376 4.002-13.376 7.267v3.581c0 1.896 1.58 3.476 3.476 3.476h6.425c1.895 0 3.475-1.58 3.475-3.476z" fill="#fff"/></mask><g mask="url(#a)"><path d="M2.078 27.281h13.376V41.5H2.078V27.281z" fill="#428CDC"/></g><path d="M8.819 27.807c-.421 0-.737.105-.737.21v.422c0 .105.316.21.737.21s.737-.105.737-.21v-.422c0-.105-.316-.21-.737-.21z" fill="#628EB9"/><path d="M7.871 21.067v.106s.21-.106.21-.211l.211-.316v-.316s-.316-.421-.42-.632c-.106-.21-.106-.526-.106-.737l-.21-.105-.212-.106v.316c.211.316.316.632.316.632l.316.421v.106s0 .105.106.316c0 .316-.211.632-.211.526zm-2.106 6.74-.106.106h.316c.106-.105-.105-.105-.21-.105zm-.106-.21c-.105-.105-.105-.105 0 0-.105 0-.105 0 0 0zm3.265-3.58c-.105.105-.105.105-.105.21h-.105v.737l-.422.632c-.21.316-.42.316-.42.421v.527s0 .421-.212.632c0 0 0 .105-.105.105s-.527.106-.527.106 0 .105-.105.21c1.264-.316 2.633-.527 4.108-.737l-2.107-2.844zm-2.317 1.58v-1.054c0-.21 0-.316.106-.421 0-.106.21-.211.21-.211v-.21l.105-.106s0-.105.106-.316c0-.105.421-1.053.632-1.37l-.106-.315h-.21l-.21-.105v-.106s-.106 0-.106-.105l-.106-.21c-.105 0-.105-.317-.105-.317v-.737l-.105-.105c0-.105-.105-.421-.105-.421s-.527 0-.527-.211c0 0-.21-.527-.316-.843v-.737s.527-.842.737-.948c.106-.105.632-.316.843-.421h.948v-.737c0-.106 0 0 .105-.21 0-.106.105-.212.21-.317H5.45c-1.896 0-3.476 1.58-3.476 3.476v10.953c.948-.421 2.107-.737 3.37-1.053v-.106s.106-.21.106-.316h-.21v-.21s-.106 0-.106-.105v-.422c0-.105.21-.105.21-.105l.632-.105c.21-.106.527-.632.527-.632s.105-.738.105-.843zm5.372.842c0 .105-.211.316-.422.42 1.264-.104 2.528-.315 3.897-.42v-8.11c0-1.896-1.58-3.476-3.476-3.476H9.873l.105.106c.106.21.106.421.106.421v1.053s.105.21.21.21c0 0 .211.317.316.422.106.105.211.316.316.527.527.421.527.632.527.632 0 .21.316 1.474.421 1.895v.948c0 .106-.105.422-.105.422v.21s.21.527-.316.948c-.632.527-1.58.948-1.685 1.053l-.21-.421h-.422l1.58 2.949c.105.21.105.316.316.316.105 0 .316-.105.631-.21.211-.106.422-.422.527-.527h.105v.105c-.105.105-.21.421-.316.527z" fill="#428CDC"/><mask id="b" style="mask-type:luminance" maskUnits="userSpaceOnUse" x="1" y="14" width="15" height="16"><path d="M7.871 21.067v.106s.21-.106.21-.211l.211-.316v-.316s-.316-.421-.42-.632c-.106-.21-.106-.526-.106-.737l-.21-.105-.212-.106v.316c.211.316.316.632.316.632l.316.421v.106s0 .105.106.316c0 .316-.211.632-.211.526zm-2.106 6.74-.106.106h.316c.106-.105-.105-.105-.21-.105zm-.106-.21c-.105-.105-.105-.105 0 0-.105 0-.105 0 0 0zm3.265-3.58c-.105.105-.105.105-.105.21h-.105v.737l-.422.632c-.21.316-.42.316-.42.421v.527s0 .421-.212.632c0 0 0 .105-.105.105s-.527.106-.527.106 0 .105-.105.21c1.264-.316 2.633-.527 4.108-.737l-2.107-2.844zm-2.317 1.58v-1.054c0-.21 0-.316.106-.421 0-.106.21-.211.21-.211v-.21l.105-.106s0-.105.106-.316c0-.105.421-1.053.632-1.37l-.106-.315h-.21l-.21-.105v-.106s-.106 0-.106-.105l-.106-.21c-.105 0-.105-.317-.105-.317v-.737l-.105-.105c0-.105-.105-.421-.105-.421s-.527 0-.527-.211c0 0-.21-.527-.316-.843v-.737s.527-.842.737-.948c.106-.105.632-.316.843-.421h.948v-.737c0-.106 0 0 .105-.21 0-.106.105-.212.21-.317H5.45c-1.896 0-3.476 1.58-3.476 3.476v10.953c.948-.421 2.107-.737 3.37-1.053v-.106s.106-.21.106-.316h-.21v-.21s-.106 0-.106-.105v-.422c0-.105.21-.105.21-.105l.632-.105c.21-.106.527-.632.527-.632s.105-.738.105-.843zm5.372.842c0 .105-.211.316-.422.42 1.264-.104 2.528-.315 3.897-.42v-8.11c0-1.896-1.58-3.476-3.476-3.476H9.873l.105.106c.106.21.106.421.106.421v1.053s.105.21.21.21c0 0 .211.317.316.422.106.105.211.316.316.527.527.421.527.632.527.632 0 .21.316 1.474.421 1.895v.948c0 .106-.105.422-.105.422v.21s.21.527-.316.948c-.632.527-1.58.948-1.685 1.053l-.21-.421h-.422l1.58 2.949c.105.21.105.316.316.316.105 0 .316-.105.631-.21.211-.106.422-.422.527-.527h.105v.105c-.105.105-.21.421-.316.527z" fill="#fff"/></mask><g mask="url(#b)"><path d="M2.078 14.854h13.376v14.323H2.078V14.854z" fill="#428CDC"/></g><path d="M13.348 39.709h1.79v-.106c-.632 0-1.264 0-1.79.106-.316-.106-.738-.106-1.054-.106 0-.21 0-.421.106-.737h-.106c0 .21 0 .527-.105.737-2.528-.21-4.95-.948-6.635-1.895a23.126 23.126 0 0 1 3.476-4.845l.21-.21c1.053.526 2.528.947 4.213 1.158-.21.526-.421 1.158-.527 1.79h.106c.105-.632.316-1.264.526-1.79.632.105 1.264.105 1.896.105v-.105c-.632 0-1.264 0-1.896-.106.527-1.474 1.159-2.843 1.896-3.896v-.211c-.737 1.053-1.474 2.528-2.001 4.107-1.58-.21-3.054-.631-4.213-1.158 1.475-1.475 3.054-2.738 4.529-3.686.316.316 1.158.526 1.685.632v-.106c-.737-.105-1.264-.316-1.58-.526.527-.316 1.053-.527 1.58-.738v-.105c-.527.21-1.159.527-1.685.843-.105-.106-.105-.21-.105-.21 0-.317.526-.633 1.369-.843-.421-.106-.737-.106-1.053 0-.316.21-.527.42-.527.631 0 .106 0 .211.105.316-1.474.843-3.054 2.212-4.528 3.686-1.054-.526-1.686-1.053-1.686-1.58 0-.526.422-.947 1.264-1.368-.316.105-.526.21-.842.316-.316.316-.527.631-.527.947 0 .527.632 1.159 1.685 1.685 0 .106-.105.106-.21.211-1.475 1.58-2.739 3.265-3.581 4.95-1.896-1.053-3.16-2.211-3.16-3.054v.421c.316.737 1.475 1.79 3.16 2.633-.632 1.264-1.053 2.528-1.159 3.476h.106c0-.948.42-2.212 1.158-3.476h.105c2.001 1.053 4.424 1.685 6.636 1.896 0 .632-.106 1.264-.106 1.896 0-.527 0-1.159.106-1.79.631.105.947.105 1.369.105z" fill="#D7E9F9"/><path d="M4.711 38.55c0 .21-.21.422-.42.422H4.08a.453.453 0 0 1-.422-.422v-2.738c0-.21.21-.421.422-.421h.21c.21 0 .421.21.421.42v2.74zm1.896 0c0 .21-.21.422-.421.422h-.21a.453.453 0 0 1-.422-.422v-2.738c0-.21.21-.421.421-.421h.21c.212 0 .422.21.422.42v2.74zm3.897 0c0 .21-.21.422-.421.422h-.21a.453.453 0 0 1-.422-.422v-.948h-.948v.948c0 .21-.21.422-.421.422H7.87a.453.453 0 0 1-.421-.422v-2.738c0-.21.21-.421.421-.421h.21c.211 0 .422.21.422.42v.949h.948v-.948c0-.21.21-.421.421-.421h.21c.211 0 .422.21.422.42v2.74zm3.054-1.79c.21 0 .421.21.421.421 0 .21-.21.421-.42.421h-1.054v.948c0 .21-.21.422-.421.422h-.21a.453.453 0 0 1-.422-.422v-2.738c0-.21.21-.421.421-.421h1.685c.21 0 .421.21.421.42 0 .212-.21.422-.42.422h-1.054v.527h1.053z" fill="#D7E9F9"/><path d="M12.084 14.01H5.659c-2.422 0-4.318 1.896-4.318 4.318v19.8c0 2.422 1.896 4.318 4.318 4.318h6.425c2.422 0 4.318-1.896 4.318-4.318v-19.8c0-2.422-2.001-4.318-4.318-4.318zm3.791 24.118c0 2.106-1.79 3.897-3.896 3.897H5.554c-2.106 0-3.897-1.79-3.897-3.897v-19.8c0-2.107 1.79-3.897 3.897-3.897h6.425c2.106 0 3.896 1.79 3.896 3.897v19.8zm11.901-23.276h-.737c-1.896 0-3.475 1.58-3.475 3.476v19.8c0 1.896 1.58 3.475 3.475 3.475h.737c1.896 0 3.476-1.58 3.476-3.475v-19.8c-.105-1.896-1.58-3.476-3.476-3.476zm14.218 0h-.737c-1.895 0-3.475 1.58-3.475 3.476v19.8c0 1.896 1.58 3.475 3.475 3.475h.737c1.896 0 3.476-1.58 3.476-3.475v-19.8c0-1.896-1.474-3.476-3.476-3.476zm28.647 0h-.737c-1.896 0-3.475 1.58-3.475 3.476v6.74h-6.636v-6.74c0-1.896-1.58-3.476-3.475-3.476h-.632c-1.896 0-3.476 1.58-3.476 3.476v19.8c0 1.896 1.58 3.475 3.476 3.475h.737c1.896 0 3.476-1.58 3.476-3.475v-6.74h6.635v6.74c0 1.896 1.58 3.475 3.475 3.475h.738c1.895 0 3.475-1.58 3.475-3.475v-19.8c-.105-1.896-1.58-3.476-3.58-3.476zm25.803 6.214c1.685 0 3.16-1.369 3.16-3.16 0-1.79-1.37-3.159-3.16-3.159H84.227c-1.895 0-3.475 1.58-3.475 3.476v19.8c0 1.895 1.58 3.475 3.475 3.475h.738c1.895 0 3.475-1.58 3.475-3.475v-6.74h8.004c1.685 0 3.16-1.37 3.16-3.16s-1.37-3.16-3.16-3.16H88.44v-3.897h8.004z" fill="#428CDC"/></svg>