<svg width="21" height="20" fill="none" xmlns="http://www.w3.org/2000/svg"><path d="M4.5 15.001c0 1.1.9 2 2 2v2c0 .6.4 1 1 1s1-.4 1-1v-2h4v2c0 .6.4 1 1 1s1-.4 1-1v-2c1.1 0 2 .1 2-1v-7h-12v6zm-2-7c-.6 0-1 .5-1 1v5c0 .6.4 1 1 1s1-.4 1-1v-5c0-.5-.4-1-1-1zm12.7-6.2c.4-.4.4-1.1 0-1.5-.4-.4-1.1-.4-1.5 0l-1.1 1.1c-.7-.2-1.4-.4-2.1-.4-.7 0-1.4.2-2.1.4L7.3.301c-.4-.4-1.1-.4-1.5 0-.4.4-.4 1.1 0 1.5l.8.8c-1.3 1.2-2.1 2.9-2.1 4.8v.6h12v-.6c0-2-.8-3.7-2.1-4.9l.8-.7zM8 7.001c-.8 0-1.5-.7-1.5-1.5s.7-1.5 1.5-1.5 1.5.7 1.5 1.5-.7 1.5-1.5 1.5zm6.5-1.5c0 .8-.7 1.5-1.5 1.5s-1.5-.7-1.5-1.5.7-1.5 1.5-1.5 1.5.7 1.5 1.5zm4 2.5c-.6 0-1 .4-1 1v5c0 .6.4 1 1 1s1-.4 1-1v-5c0-.5-.4-1-1-1z" fill="#000"/></svg>