<svg width="25" height="25" viewBox="0 0 25 25" fill="none" xmlns="http://www.w3.org/2000/svg">
<path d="M6.70001 1.5V5.582C6.70001 9.334 9.14701 12.524 12.5 13.696C15.853 12.525 18.3 9.334 18.3 5.582V1.5H6.70001Z" fill="#3B6F6D"/>
<path d="M6.42201 9.914C5.3655 9.03573 4.49993 7.95053 3.87858 6.72519C3.25722 5.49984 2.89323 4.1603 2.80901 2.789H5.41001V1.5H1.50001V2.145C1.49752 4.72119 2.37098 7.22168 3.97701 9.236C5.14038 10.6919 6.641 11.8424 8.34901 12.588C7.56248 11.81 6.91122 10.9063 6.42201 9.914ZM19.59 1.5V2.79H22.19C22.1058 4.16105 21.7419 5.50036 21.1207 6.72551C20.4995 7.95067 19.6342 9.03576 18.578 9.914C18.0888 10.9063 17.4375 11.81 16.651 12.588C18.359 11.8425 19.8597 10.6919 21.023 9.236C22.63 7.22223 23.5036 4.72138 23.5 2.145V1.5H19.59ZM17.441 17.055V22.211H18.731V23.5H6.27001V22.21H7.55901V17.055H11.211V14.565C11.491 14.693 11.779 14.81 12.075 14.913L12.5 15.062L12.925 14.913C13.221 14.81 13.509 14.693 13.789 14.565V17.055H17.441Z" fill="#3B6F6D"/>
</svg>
