<svg width="121" height="28" fill="none" xmlns="http://www.w3.org/2000/svg"><g clip-path="url(#a)"><path d="M102.168 1.027c2 0 3.9.5 5.6 1.3.3.1.5.3.8.4l-1.2 1-1.8-1.8-3 2.7-1.8-1.9-5.6 5 3.6 3.9-1.3 1.2 3.5 3.9-1.4 1.2 5 5.5 3-2.7 2.6 2.9c-.5.4-1.1.8-1.7 1.1-1.9 1-4 1.6-6.3 1.6-7.1 0-12.8-5.7-12.8-12.7 0-6.9 5.8-12.6 12.8-12.6zm-2.3 11.9 3.1-2.7 2.7 3-3.1 2.7-2.7-3zm2.2 5.3 3-2.7 2.8 3-3.1 2.7-2.7-3zm-4.4-10.4 3.1-2.7 2.7 3-3.1 2.7-2.7-3zm5.6-1.5 2.3-2 2.1 2.3-2.3 2-2.1-2.3zm4.1 9.3 2.3-2 2.1 2.3-2.3 2-2.1-2.3zm2 4.6 2.3-2 2.1 2.3-2.3 2.1-2.1-2.4zm.9-10.5 1.5-1.4 1.4 1.5-1.5 1.4-1.4-1.5zm-1.9-4.4 1.5-1.4 1.4 1.5-1.6 1.4-1.3-1.5zm3.9 8.9 1.5-1.4 1.4 1.5-1.5 1.4-1.4-1.5zm-6.9-3.3 2.3-2 2.1 2.3-2.3 2-2.1-2.3zm-94.1-1.09h-.2l-2.1 8.2h-1.8l-2.7-11.7h1.9l1.8 8.7h.1l2.2-8.7h1.4l2.3 8.7h.1l1.7-8.7h1.9l-2.6 11.7h-1.8l-2.2-8.2zm9 3.19h3.8c-.1-1.7-.9-2.4-1.8-2.4-1.1 0-1.9.8-2 2.4zm5 3.1v1.3c-.7.4-1.7.8-2.9.8-2.8 0-3.9-1.7-3.9-4.3 0-2.5 1.3-4.3 3.7-4.3 2.1 0 3.3 1.3 3.3 4v.6h-5.4c0 2 .8 2.9 2.5 2.9 1-.1 1.8-.4 2.7-1zm4.1.7c.5.2 1.1.3 1.5.3 1.2 0 2.1-.8 2.1-3.4 0-2.1-.8-2.8-1.9-2.8-.7 0-1.1.2-1.8.5l.1 5.4zm0-6.6c.5-.3 1.3-.6 2.2-.6 2 0 3.1 1.4 3.1 4.1 0 3.1-1.5 4.6-3.9 4.6-.9 0-2.2-.3-3.2-.8v-11.6l1.8-.4v4.7zm12.8 5.3h.1l3.5-9.2h2v11.7h-1.8v-8.5h-.1l-3.4 8.5h-1l-3.4-8.3h-.1v8.3h-1.5v-11.7h2l3.7 9.2zm12.9-1.7c0-2.2-.9-3.2-2-3.2s-2 .9-2 3.2c0 2.3.9 3.2 2 3.2s2-.9 2-3.2zm-5.8 0c0-2.9 1.6-4.3 3.7-4.3 2.2 0 3.7 1.4 3.7 4.3 0 2.8-1.5 4.3-3.7 4.3s-3.7-1.5-3.7-4.3zm8.8-3.1c.7-.4 2.3-1.2 4.2-1.2 2 0 2.7.8 2.7 2.5v6h-1.7v-5.6c0-1.3-.6-1.5-1.5-1.5-.7 0-1.5.3-2 .6v6.5h-1.7v-7.3zm10.5 2.3h3.8c-.1-1.7-.9-2.4-1.8-2.4-1 0-1.8.8-2 2.4zm5.1 3.1v1.3c-.7.4-1.7.8-2.9.8-2.8 0-3.9-1.7-3.9-4.3 0-2.5 1.3-4.3 3.7-4.3 2.1 0 3.3 1.3 3.3 4v.6h-5.4c0 2 .8 2.9 2.5 2.9 1-.1 1.8-.4 2.7-1zm7.1-6.6h1.8l-3 8.3c-.8 2.3-1.8 3.5-3.7 3.5v-1.4c1.1 0 1.8-.9 2.2-2.1l-3.2-8.3h1.8l2.1 6.1h.1l1.9-6.1z" fill="#fff"/><path d="M22.268 25.628v-.7c.6.3 1.2.5 1.7.5s.8-.1 1.1-.3c.2-.2.4-.4.4-.7 0-.3-.1-.5-.3-.6-.2-.1-.6-.3-1.1-.5-.2-.1-.3-.1-.4-.1-.1 0-.2-.1-.3-.1-.2-.1-.3-.1-.3-.1s-.1-.1-.2-.1c-.1-.1-.2-.1-.2-.2s-.1-.1-.2-.2-.1-.2-.1-.2c0-.1 0-.2-.1-.3v-.3c0-.5.2-.8.5-1.1.3-.3.8-.4 1.4-.4.5 0 1.1.1 1.6.3v.8c-.5-.3-1-.4-1.6-.4-.4 0-.6.1-.8.2-.2.2-.3.4-.3.6 0 .3.1.5.3.6.2.1.5.3 1 .5.8.3 1.3.6 1.6.8.3.2.4.6.4 1.1 0 .5-.2.9-.6 1.2-.4.3-1 .5-1.7.5-.7-.4-1.3-.5-1.8-.8zm8.3.3h-.8l-.1-.5c-.5.4-.9.6-1.4.6-.4 0-.7-.1-.9-.3-.2-.2-.3-.5-.3-.8 0-.2 0-.3.1-.5s.2-.3.3-.5c.1-.1.4-.3.7-.4.3-.1.6-.1 1-.1h.5v-.2c0-.4-.1-.6-.2-.8-.1-.1-.4-.2-.7-.2-.4 0-.9.2-1.4.5v-.7c.6-.3 1.2-.4 1.7-.4s.9.1 1.1.3c.2.2.3.6.3 1l.1 3zm-.9-1.9h-.4c-.9 0-1.3.3-1.3.8 0 .2.1.3.2.4.1.1.3.1.4.1.2 0 .4-.1.7-.2.2-.1.4-.2.5-.4l-.1-.7zm2.2 3.6v-5.3c.2-.2.5-.3.8-.4.3-.1.6-.2 1-.2 1.1 0 1.7.7 1.7 2.1 0 .7-.1 1.3-.4 1.6-.3.4-.7.6-1.3.6-.4 0-.7-.1-1-.3v1.9h-.8zm.9-5.1v2.5c.1.1.2.2.4.2.2.1.3.1.4.1.3 0 .5-.1.7-.4.2-.2.3-.7.3-1.3 0-.5-.1-.9-.3-1.1-.2-.2-.4-.3-.7-.3-.3.1-.6.2-.8.3zm4.6-.8v4.2h-.8v-4l.8-.2zm-1-1.2c0-.1.1-.3.2-.4.1-.1.2-.2.4-.2.1 0 .3.1.4.2.1.1.2.2.2.4 0 .1-.1.3-.2.4-.1.1-.2.2-.4.2-.1 0-.3-.1-.4-.2-.1-.1-.2-.3-.2-.4zm4.2 4.9c.4 0 .8-.1 1.3-.4v.6c-.4.3-.9.4-1.4.4-.7 0-1.2-.2-1.5-.6-.3-.4-.5-.9-.5-1.6 0-.7.2-1.2.5-1.6.3-.4.8-.6 1.4-.6.5 0 .9.2 1.2.5.3.3.4.8.4 1.5v.3h-2.7c0 .5.1.9.3 1.1.2.3.5.4 1 .4zm-.3-3.2c-.3 0-.5.1-.6.3-.2.2-.3.5-.3.9h1.9c0-.4-.1-.7-.3-.9-.2-.2-.5-.3-.7-.3zm2.8 3.7v-3.6c.7-.4 1.4-.6 2.1-.6.5 0 .8.1 1 .3.2.2.3.5.3.9v3h-.8v-2.8c0-.3-.1-.5-.2-.6-.1-.1-.3-.2-.5-.2-.3 0-.7.1-1 .3v3.3h-.9zm5.5-4.1h1.3l-.2.6h-1.1v2.2c0 .6.2.8.7.8.2 0 .4 0 .5-.1v.5c-.3.1-.6.1-.9.1-.4 0-.7-.1-.9-.4-.2-.2-.3-.5-.3-.9v-3.4l.8-.6.1 1.2zm3-.1v4.2h-.8v-4l.8-.2zm-1-1.2c0-.1.1-.3.2-.4.1-.1.2-.2.4-.2.1 0 .3.1.4.2.1.1.2.2.2.4 0 .1-.1.3-.2.4-.1.1-.2.2-.4.2-.1 0-.3-.1-.4-.2-.1-.1-.2-.3-.2-.4zm6.8 1.5v.7c-.4-.3-.8-.4-1.2-.4-.2 0-.4 0-.5.1-.1.1-.2.2-.2.4s.1.3.2.4c.1.1.4.2.7.3.2.1.3.1.4.1.1 0 .2.1.4.2.1.1.3.2.3.2.1.1.1.2.2.3.1.1.1.3.1.4 0 .4-.2.7-.5.9-.3.2-.7.3-1.2.3-.6 0-1-.1-1.4-.4v-.6c.5.3.9.4 1.3.4.6 0 .9-.2.9-.6 0-.1 0-.1-.1-.2 0-.1-.1-.1-.1-.2 0 0-.1-.1-.2-.1-.1-.1-.2-.1-.3-.1-.1 0-.2-.1-.3-.1-.2-.1-.4-.2-.5-.2-.1-.1-.3-.1-.4-.2l-.3-.3c-.1-.1-.1-.3-.1-.5s.1-.4.2-.6c.1-.2.3-.3.4-.4.2-.1.3-.1.5-.1h.4c.4-.1.8.1 1.3.3zm4.5 3.9h-.8l-.1-.5c-.5.4-.9.6-1.4.6-.4 0-.7-.1-.9-.3-.2-.2-.3-.5-.3-.8 0-.2 0-.3.1-.5s.2-.3.3-.5c.1-.1.4-.3.7-.4.3-.1.6-.1 1-.1h.5v-.2c0-.4-.1-.6-.2-.8-.1-.1-.4-.2-.7-.2-.4 0-.9.2-1.4.5v-.7c.6-.3 1.2-.4 1.7-.4.6 0 .9.1 1.1.3.2.2.3.6.3 1l.1 3zm-.9-1.9h-.4c-.9 0-1.3.3-1.3.8 0 .2.1.3.2.4.1.1.3.1.4.1.2 0 .4-.1.7-.2.2-.1.4-.2.5-.4l-.1-.7zm3-2.2h1.3l-.2.6h-1.1v2.2c0 .6.2.8.7.8.2 0 .4 0 .5-.1v.5c-.3.1-.6.1-.9.1-.4 0-.7-.1-.9-.4-.2-.2-.3-.5-.3-.9v-3.4l.8-.6.1 1.2z" fill="#CDD4DE"/></g><defs><clipPath id="a"><path fill="#fff" transform="translate(.368 .828)" d="M0 0h120v27H0z"/></clipPath></defs></svg>