<svg width="69" height="57" fill="none" xmlns="http://www.w3.org/2000/svg"><path d="M9.33 39.982c0-.583.097-1.166.097-1.166s-.097-.291-.194-.486c-.097-.194 0-.194 0-.291 0 0 0-.291-.097-.486-.195-.291-.583-1.068-.583-1.068l.097-.195-.291-.777s-1.943-1.457-2.72-2.137C4.86 32.6 3.307 30.17 3.21 30.073c-.097 0-.389.097-.389.097l-.194-.582c-.097-.195-.291-.778-.486-1.36-.194-.583-.388-1.069-.388-1.263 0-.292 0-.777.097-1.166.097-.291.583-.777.486-.777l-.097-.194s-.389.194-.778-.098c-.485-.388-.097-1.36.68-3.302.778-1.943 1.166-2.332 1.263-2.429.195-.097.292-.194.292-.194h.874l.097-.097h.777s.486 0 .292-1.263c0 0-.195-.389-.195-.486 0-.097.098-.194.098-.194.291-.292.291-.195.291-.972l.389-.291.194-.389H2.82c-.874 0-1.651.777-1.651 1.652V39.69c0 .875.777 1.652 1.651 1.652H9.72c-.098 0-.389-.486-.389-1.36z" fill="#428CDC"/><path d="M4.279 39.885h-.972l-.583-2.623v2.623h-.583v-3.303H3.21l.389 2.137v-2.137h.68v3.303zm2.04-2.331c0 .29-.098.582-.583.582.388 0 .583.195.583.68v.292c0 .583-.292.777-.972.777h-.971v-3.303h.971c.486 0 .972.194.972.68v.291zm1.36 2.33v-.873H7.29l-.194.874h-.68l.583-3.303h1.068l.486 3.303h-.874z" fill="#D7E9F9"/><path d="M5.347 37.068H5.25v.875h.097a.209.209 0 0 0 .194-.195v-.485c0-.097 0-.195-.194-.195zm0 1.36H5.25v.972h.097c.097 0 .194 0 .194-.194v-.778h-.194zm1.943.098h.291l-.097-1.36-.194 1.36z" fill="#428CDC"/><path d="M10.204 30.365c-1.068 0-2.04-.875-2.04-2.04 0-.875.583-1.555 1.36-1.846.097-.097.097-.194.097-.194s-.097-.292-.388-.68c-.292-.389-.583-1.36-.68-1.652-.097-.291-.292-1.748-.389-1.748-.097 0-.097 0-.291.097-.292.097-.486.583-.583.777-.097.194-.486 1.36-.583 1.36l.097.097s.292.194.389.292c.097.097.777 2.525.777 2.525l-.194.292s0 .194.097.583c.097.291.194.777.291 1.165l.486 1.943.583 1.166c.291.583.583 2.72.583 2.72s.485.777.485 1.068c.098.292-.097.972-.097.972s0 .486.097.68c0 .097.098.291.098.388 0 .098.097.389.097.486 0 .097.485 1.554.485 1.652 0 .194-.291.68-.388.68l-.194.194c.874 0 1.651-.777 1.651-1.652V29.296a2.083 2.083 0 0 1-1.846 1.069zm.097-15.252H7.776c.097 0 .583.389.68.486.097.097.097.291 0 .583l-.195.583v.194l.098.097s-.292.583-.389.583c0 0-.486.777-.583.874-.097.097-.097.292-.097.292.097.097.389.291.389.291h.194l.388.292s0 .097.195.291c.194.097.583.486.874.777.291.292.291 1.069.291 1.652 0 .582.292 1.845.292 1.942.097.098.486 1.069.486 1.263.097.292.097.777.097.777l.388.486c.389.194.68.486.875.777V16.668c.194-.778-.583-1.555-1.458-1.555z" fill="#D7E9F9"/><path d="M33.81 41.342h-7.48l-4.469-20.594v20.594h-4.857V15.113h8.646l3.206 17 .097-17h4.857v26.229zm16.709-18.943v-1.943c0-3.983-3.498-5.343-7.383-5.343h-7.383v26.229h7.383c4.857 0 7.383-1.36 7.383-5.829v-2.331c0-4.177-1.458-5.44-4.663-5.634v-.098c3.885-.68 4.663-2.525 4.663-5.051zm-6.315 13.989c0 1.068-.485 1.262-1.457 1.262h-.777v-8.257h.777c.972 0 1.457.195 1.457 1.263v5.732zm0-12.046c0 1.263-.485 1.651-1.457 1.651h-.777v-7.091h.777c.972 0 1.457.388 1.457 1.651v3.789zm19.915-9.229H55.86L51.2 41.342h5.537l.971-7.092h3.012l.68 7.092h6.508L64.12 15.113zM58.29 30.462l.971-10.783.972 10.783H58.29z" fill="#428CDC"/></svg>