<svg width="72" height="57" fill="none" xmlns="http://www.w3.org/2000/svg"><path d="M36.134 32.488c-8.52 0-16.093 3.787-21.3 9.656l1.136 1.136c4.923-5.585 12.117-9.182 19.975-9.182 8.236 0 15.525 3.786 20.448 9.656l1.325-1.136c-5.207-6.154-12.875-10.13-21.584-10.13zm.379-19.974c-13.727 0-26.034 5.68-34.743 14.862l1.42 1.515c8.236-8.804 20.164-14.39 33.323-14.39 12.969 0 24.613 5.397 32.944 14.106l1.514-1.515C62.167 18.1 50.05 12.514 36.513 12.514zM19.946 32.015c0-1.42-.473-2.461-1.42-3.597l-4.355-5.396-1.893 1.609 3.881 4.828c1.231 1.515 1.988 2.935.379 4.544-1.988 1.61-3.408.757-4.355-.379l-4.449-5.396-1.893 1.515 4.544 5.68c.852 1.041 2.082 1.893 3.881 1.893 1.325 0 2.556-.568 3.313-1.23 1.42-1.042 2.367-2.462 2.367-4.071zM31.59 17.436l-7.005 1.42c-1.042.284-1.231.663-.947 1.61l1.515 7.384c.378 1.609 1.23 3.124 4.544 2.461l4.354-.852-.473-2.272-4.26.852c-1.136.284-1.61 0-1.893-1.041l-.284-1.231 5.49-1.136-.473-2.177-5.396 1.136-.568-2.651 5.964-1.136-.568-2.367zm15.052 3.692 3.881 1.042.568-2.272-4.26-1.136c-1.514-.379-3.976-.663-4.828 2.177l-1.798 7.005c-.474 1.515 0 1.799.946 2.083l1.042.19 1.23-4.829 5.396 1.42.568-2.177-5.301-1.325.379-1.42c.284-1.231 1.136-1.042 2.177-.758zm15.525 4.734c-.473-.379-1.041-.379-1.798.189l-10.224 6.532 2.272 1.325 7.573-4.922-1.23 3.976-.947-.758-2.083 1.326 2.272 1.798-.568 2.367 1.988 1.893 3.124-10.981c.473-1.799.379-1.893 0-2.272l-.379-.473z" fill="#428CDC"/></svg>