<svg xmlns="http://www.w3.org/2000/svg" viewBox="0 0 24 24" id="playing-cards">
   <g clip-path="url(#cza)">
      <path fill-rule="evenodd" clip-rule="evenodd" fill="#3B6F6D"
         d="M22.807 5.343 14.4 3.055a1.589 1.589 0 0 0-1.22.164c-.37.217-.641.574-.754.994L9.144 16.651c-.108.42-.05.867.164 1.242.214.376.565.65.977.762l8.406 2.288c.413.111.851.053 1.22-.164.37-.217.641-.574.754-.993l3.282-12.438c.108-.42.05-.867-.164-1.242a1.613 1.613 0 0 0-.976-.763Zm-7.249 11.745a.637.637 0 0 1-.722-.198c-1.718-2.143-.686-3.305.014-3.339.622-.028.897.41 1.03.872.313-.388.796-.57 1.32-.228.59.386.905 1.918-1.642 2.893Zm1.854-7.039a.636.636 0 0 1-.722-.198c-1.718-2.143-.687-3.305.014-3.338.622-.029.897.41 1.029.871.313-.387.797-.57 1.32-.228.59.386.906 1.919-1.64 2.893Zm-7.847 9.737Zm-4.256 1.159 4.256-1.16a2.913 2.913 0 0 1-1.438-1.355 3 3 0 0 1-.26-1.98l-.942-.71a.733.733 0 0 1-.227-.867l.6-1.401a.719.719 0 0 1 .465-.407.692.692 0 0 1 .602.117l.3.226 2.515-9.535c.024-.09.053-.18.085-.269a1.616 1.616 0 0 0-1.252-.603c-.137 0-.276.018-.413.055L1.194 5.343a1.614 1.614 0 0 0-.977.762 1.67 1.67 0 0 0-.164 1.243l3.281 12.44c.113.42.384.776.754.993.37.216.808.275 1.22.164ZM6.514 7.124a.7.7 0 0 1 .288.128l1.617 1.219-.828 1.926a.72.72 0 0 1-.464.407.692.692 0 0 1-.602-.117l-1.163-.876a.733.733 0 0 1-.228-.868l.601-1.4a.72.72 0 0 1 .465-.407.693.693 0 0 1 .314-.012Z">
      </path>
   </g>
   <defs>
      <clipPath id="cza">
         <path d="M0 0h24v24H0z"></path>
      </clipPath>
   </defs>
</svg>