<svg xmlns="http://www.w3.org/2000/svg" fill="none" viewBox="0 0 24 24" id="rocket">
   <g clip-path="url(#dqa)">
      <path fill="#3B6F6D"
         d="M4.48 11.673 8.06 7.3c-1.181-.13-2.232.085-3.136.643-1.59.982-2.432 2.804-2.823 3.944l2.379-.215ZM12.114 21.898c1.142-.394 2.97-1.24 3.947-2.827.555-.902.768-1.951.639-3.13l-4.371 3.58-.216 2.377ZM5.74 17.177l1.407-1.407-2.056-2.056-.916 1.899 1.565 1.564ZM10.287 18.91l-2.056-2.055-1.407 1.407 1.565 1.564 1.898-.915ZM18.747.409l4.846 4.846c.43-1.64.529-3.373.256-5.103a12.44 12.44 0 0 0-5.102.257ZM16.578 5.988a1.437 1.437 0 0 0 0 2.87 1.437 1.437 0 0 0 0-2.87ZM.542 23.454c-.3-.3-.3-.785 0-1.084l3.411-3.411a.767.767 0 1 1 1.085 1.084l-3.411 3.411c-.3.3-.785.3-1.085 0ZM4.877 23.458c-.3-.3-.3-.785 0-1.085l1.245-1.245a.767.767 0 1 1 1.085 1.084L5.96 23.458c-.3.3-.785.3-1.084 0ZM.546 19.113c-.3-.3-.3-.785 0-1.084l1.239-1.24a.767.767 0 1 1 1.084 1.085L1.63 19.113c-.3.3-.785.3-1.084 0Z">
      </path>
      <path fill-rule="evenodd" clip-rule="evenodd" fill="#3B6F6D"
         d="M16.73 1.13a12.446 12.446 0 0 0-4.444 3.433l-6.224 7.598 2.182 2.182 3.63-3.63a1 1 0 0 1 1.415 1.414l-3.63 3.63 2.181 2.182 7.598-6.223a12.446 12.446 0 0 0 3.434-4.445L16.73 1.13Zm-.152 9.262a2.95 2.95 0 0 0 2.1-.87c.56-.56.87-1.306.87-2.099a2.95 2.95 0 0 0-.87-2.1 2.95 2.95 0 0 0-2.1-.87 2.95 2.95 0 0 0-2.1.87 2.95 2.95 0 0 0-.869 2.1c0 .793.309 1.539.87 2.1.56.56 1.306.87 2.1.87Z">
      </path>
   </g>
   <defs>
      <clipPath id="dqa">
         <path fill="#fff" d="M0 0h24v24H0z"></path>
      </clipPath>
   </defs>
</svg>