<svg width="25" height="25" viewBox="0 0 25 25" fill="none" xmlns="http://www.w3.org/2000/svg">
<path fill-rule="evenodd" clip-rule="evenodd" d="M21.416 4.43H12.495L10.353 1.86C10.269 1.75908 10.1659 1.67571 10.0496 1.61463C9.93332 1.55355 9.80616 1.51598 9.67536 1.50404C9.54457 1.49211 9.41271 1.50606 9.28731 1.54509C9.16191 1.58411 9.04542 1.64746 8.9445 1.7315C8.84358 1.81555 8.7602 1.91865 8.69913 2.03492C8.63805 2.15119 8.60047 2.27835 8.58854 2.40914C8.57661 2.53993 8.59055 2.67179 8.62958 2.7972C8.66861 2.9226 8.73195 3.03908 8.816 3.14L9.89 4.43H3.59C2.77129 4.43264 1.98687 4.75904 1.40795 5.33796C0.829036 5.91687 0.502637 6.7013 0.5 7.52L0.5 19.77C0.502637 20.5887 0.829036 21.3731 1.40795 21.9521C1.98687 22.531 2.77129 22.8574 3.59 22.86H21.41C22.2287 22.8574 23.0131 22.531 23.592 21.9521C24.171 21.3731 24.4974 20.5887 24.5 19.77V7.52C24.4974 6.70233 24.1718 5.91881 23.5942 5.34006C23.0166 4.76132 22.2337 4.43422 21.416 4.43ZM17.466 18.54C17.466 19.02 17.2753 19.4804 16.9359 19.8199C16.5964 20.1593 16.136 20.35 15.656 20.35H4.316C4.07823 20.3503 3.84275 20.3036 3.62303 20.2128C3.40331 20.1219 3.20368 19.9886 3.03555 19.8205C2.86742 19.6523 2.73411 19.4527 2.64324 19.233C2.55237 19.0133 2.50574 18.7778 2.506 18.54V8.75C2.50587 8.51228 2.5526 8.27685 2.64351 8.05719C2.73442 7.83753 2.86774 7.63795 3.03584 7.46985C3.20394 7.30175 3.40353 7.16843 3.62319 7.07752C3.84285 6.9866 4.07827 6.93987 4.316 6.94H15.655C15.8927 6.93987 16.1282 6.9866 16.3478 7.07752C16.5675 7.16843 16.7671 7.30175 16.9352 7.46985C17.1033 7.63795 17.2366 7.83753 17.3275 8.05719C17.4184 8.27685 17.4651 8.51228 17.465 8.75L17.466 18.54ZM20.946 10.66C20.7457 10.6607 20.5473 10.6219 20.362 10.5458C20.1768 10.4698 20.0083 10.358 19.8662 10.2169C19.7241 10.0757 19.6112 9.90799 19.534 9.72322C19.4568 9.53845 19.4167 9.34027 19.416 9.14001C19.4153 8.93974 19.4541 8.7413 19.5302 8.55603C19.6062 8.37076 19.718 8.20228 19.8591 8.0602C20.0003 7.91813 20.168 7.80525 20.3528 7.728C20.5376 7.65076 20.7357 7.61066 20.936 7.61C21.3405 7.60868 21.7289 7.76808 22.0158 8.05313C22.3027 8.33819 22.4647 8.72555 22.466 9.13C22.4673 9.53446 22.3079 9.92288 22.0229 10.2098C21.7378 10.4967 21.3505 10.6587 20.946 10.66ZM19.5 15.5C19.5 15.2348 19.6054 14.9804 19.7929 14.7929C19.9804 14.6054 20.2348 14.5 20.5 14.5H21.5C21.7652 14.5 22.0196 14.6054 22.2071 14.7929C22.3946 14.9804 22.5 15.2348 22.5 15.5C22.5 15.7652 22.3946 16.0196 22.2071 16.2071C22.0196 16.3946 21.7652 16.5 21.5 16.5H20.5C20.2348 16.5 19.9804 16.3946 19.7929 16.2071C19.6054 16.0196 19.5 15.7652 19.5 15.5ZM20.5 18.5C20.2348 18.5 19.9804 18.6054 19.7929 18.7929C19.6054 18.9804 19.5 19.2348 19.5 19.5C19.5 19.7652 19.6054 20.0196 19.7929 20.2071C19.9804 20.3946 20.2348 20.5 20.5 20.5H21.5C21.7652 20.5 22.0196 20.3946 22.2071 20.2071C22.3946 20.0196 22.5 19.7652 22.5 19.5C22.5 19.2348 22.3946 18.9804 22.2071 18.7929C22.0196 18.6054 21.7652 18.5 21.5 18.5H20.5Z" fill="#3B6F6D"/>
<path d="M17.552 2.70999C17.6504 2.63939 17.7335 2.54966 17.7964 2.44617C17.8593 2.34268 17.9007 2.22756 17.918 2.10771C17.9354 1.98786 17.9284 1.86574 17.8974 1.74866C17.8664 1.63159 17.8122 1.52196 17.7378 1.42636C17.6635 1.33075 17.5706 1.25113 17.4648 1.19226C17.359 1.13339 17.2424 1.09649 17.1219 1.08375C17.0015 1.07102 16.8797 1.08272 16.7639 1.11816C16.6481 1.1536 16.5407 1.21204 16.448 1.28999L17.552 2.70999ZM11.948 4.78999C11.8496 4.86059 11.7665 4.95033 11.7036 5.05382C11.6407 5.1573 11.5993 5.27242 11.582 5.39227C11.5646 5.51213 11.5717 5.63425 11.6026 5.75132C11.6336 5.8684 11.6879 5.97802 11.7622 6.07363C11.8365 6.16923 11.9294 6.24885 12.0352 6.30772C12.141 6.36659 12.2577 6.4035 12.3781 6.41623C12.4985 6.42896 12.6203 6.41726 12.7361 6.38182C12.8519 6.34639 12.9593 6.28794 13.052 6.20999L11.948 4.78999ZM16.448 1.28999L11.948 4.78999L13.052 6.20999L17.552 2.70999L16.448 1.28999ZM12.78 13.93C12.8546 13.8857 12.9164 13.8228 12.9594 13.7474C13.0023 13.672 13.0249 13.5868 13.0249 13.5C13.0249 13.4132 13.0023 13.328 12.9594 13.2526C12.9164 13.1772 12.8546 13.1143 12.78 13.07L8.68001 10.627C8.60408 10.5817 8.5175 10.5574 8.4291 10.5565C8.34071 10.5556 8.25365 10.5782 8.17681 10.6219C8.09997 10.6656 8.03609 10.7289 7.99168 10.8053C7.94727 10.8817 7.92392 10.9686 7.92401 11.057V15.943C7.92392 16.0314 7.94727 16.1182 7.99168 16.1947C8.03609 16.2711 8.09997 16.3344 8.17681 16.3781C8.25365 16.4218 8.34071 16.4444 8.4291 16.4435C8.5175 16.4426 8.60408 16.4183 8.68001 16.373L12.78 13.93Z" fill="#3B6F6D"/>
</svg>
