<svg width="58" height="57" fill="none" xmlns="http://www.w3.org/2000/svg"><path d="M21.798 9.196c-8.792 3.382-15.844 9.565-19.033 16.52-1.932 4.445-2.222 8.889-.676 12.85 2.705 6.956 10.53 11.303 20.578 11.303 4.54 0 9.275-.87 13.815-2.608 8.792-3.382 15.941-9.565 19.033-16.52 1.932-4.445 2.222-8.889.676-12.85-2.705-6.956-10.627-11.303-20.578-11.303-4.54 0-9.275.87-13.815 2.608z" fill="#428CDC"/><path d="M46.723 32.962c0 1.062-.87 1.932-1.835 1.932-1.063 0-1.836-.87-1.836-1.932 0-1.063.87-1.933 1.836-1.933.966 0 1.835.87 1.835 1.933z" fill="#fff"/><path d="M40.154 23.3c0-.966-.677-1.545-1.643-1.642H25.276c-.677 0-1.16.386-1.45.87-.096.193-.193.29-.193.29L20.928 29s-2.512-5.603-2.608-5.796l-.194-.387c-.386-.87-.966-1.256-1.642-1.256-.58 0-1.16.29-1.642 1.16 0 0-.097.096-.194.386-.096.29-2.415 5.893-2.415 5.893l-2.608-5.893-.097-.193c-.386-.773-.773-1.256-1.642-1.256-.58 0-1.16.29-1.45.87-.193.29-.386.772 0 1.642 0 .096 0 .096.097.29.58 1.352 3.285 7.439 3.961 8.984.097.194.194.29.194.484.386.676.869 1.062 1.449 1.062.58 0 1.159-.29 1.545-1.062l.29-.58 2.609-5.893s2.608 5.99 2.705 6.086c.096.097.096.193.193.387.29.58.773.966 1.45.966.675 0 1.062-.387 1.448-.966.097-.097.097-.29.29-.483.097-.194 3.768-8.502 3.768-8.502h4.25v8.115c0 .966.774 1.739 1.643 1.739.966 0 1.642-.773 1.642-1.739v-8.115h4.541c.87 0 1.643-.773 1.643-1.643zM51.65 31.9l-.096-.194-5.12-8.984-.194-.29c-.386-.58-.773-.87-1.45-.966-.675 0-1.062.386-1.448.966l-.194.29-5.023 8.888-.194.29c-.193.386-.386.676-.386 1.16 0 .965.676 1.641 1.642 1.641.58 0 1.063-.386 1.45-.966l.193-.193 3.96-7.052 3.962 7.052.096.193c.387.58.87.966 1.546.966.87 0 1.643-.676 1.643-1.642 0-.386-.194-.773-.387-1.16z" fill="#E3F2FF"/></svg>