<svg width="25" height="25" viewBox="0 0 25 25" fill="none" xmlns="http://www.w3.org/2000/svg">
<path fill-rule="evenodd" clip-rule="evenodd" d="M20.43 2.676C20.5348 2.57246 20.6736 2.51035 20.8206 2.50116C20.9677 2.49197 21.1131 2.53631 21.23 2.626C21.4 2.756 21.5 2.976 21.5 3.206V19.786C21.5 20.036 21.39 20.266 21.19 20.396C21.09 20.466 20.97 20.496 20.86 20.496C20.7 20.496 20.55 20.436 20.43 20.326C17.69 17.706 14.16 16.956 10.5 16.726V6.177C14.16 5.957 17.68 5.296 20.43 2.676ZM8.5 6.496H5.17C4.8 6.496 4.5 6.846 4.5 7.286V7.381C4.029 7.468 1.622 7.919 1.18 8.126C0.77 8.326 0.5 8.686 0.5 9.066V13.936C0.5 14.316 0.77 14.676 1.18 14.876C1.622 15.084 4.029 15.543 4.5 15.632V15.707C4.5 16.147 4.8 16.497 5.17 16.497H8.5V6.497V6.496ZM7.1 22.496H5.9C5.68 22.496 5.5 22.186 5.5 21.816V17.496H7.5V21.816C7.5 22.186 7.32 22.496 7.1 22.496ZM22.5 15.496C23.71 14.586 24.5 13.126 24.5 11.496C24.5 9.866 23.71 8.406 22.5 7.496V15.496Z" fill="#3B6F6D"/>
</svg>
