<svg width="25" height="25" viewBox="0 0 25 25" fill="none" xmlns="http://www.w3.org/2000/svg">
<path d="M18.209 12.9202C18.22 12.0762 18.445 11.2502 18.864 10.5162C19.2836 9.78201 19.8822 9.16589 20.604 8.72521C20.1441 8.0725 19.5384 7.53597 18.835 7.15822C18.1303 6.77972 17.3475 6.56988 16.548 6.54521C14.842 6.36721 13.188 7.56021 12.318 7.56021C11.433 7.56021 10.094 6.56322 8.65299 6.59222C7.71999 6.62222 6.81199 6.89222 6.01499 7.37522C5.21959 7.85714 4.56258 8.53688 4.10799 9.34822C2.14299 12.7312 3.60799 17.7032 5.49099 20.4372C6.43299 21.7762 7.53299 23.2722 8.97399 23.2192C10.383 23.1612 10.909 22.3252 12.61 22.3252C14.295 22.3252 14.79 23.2192 16.259 23.1852C17.771 23.1612 18.724 21.8402 19.632 20.4882C20.3083 19.535 20.8291 18.4806 21.175 17.3642C20.2975 16.9958 19.5478 16.3775 19.019 15.5862C18.492 14.7968 18.2102 13.8693 18.209 12.9202ZM15.434 4.74721C16.2575 3.76459 16.6635 2.49852 16.565 1.22021C15.3069 1.35098 14.1437 1.9495 13.306 2.89721C12.8983 3.3589 12.5857 3.89656 12.3863 4.47934C12.1869 5.06211 12.1046 5.67853 12.144 6.29321C12.7732 6.29942 13.3957 6.16363 13.9651 5.89596C14.5346 5.62829 15.0373 5.23563 15.434 4.74721Z" fill="#D2EEED"/>
</svg>
