<svg width="68" height="18" viewBox="0 0 68 18" fill="none" xmlns="http://www.w3.org/2000/svg">
<path d="M22.9431 5.93231L20.9484 13.8086C20.795 14.4224 20.437 14.985 19.8233 15.4453C19.2607 15.9056 18.6469 16.1102 17.982 16.1102L20.5393 5.98346H17.3683L17.0614 7.51781L14.5042 17.6445H17.5729C19.0561 17.6445 20.4881 17.0819 21.8691 15.9567C23.1988 14.8315 24.0683 13.5529 24.4263 12.0186L25.5515 7.46666L25.9607 5.93231H22.9431Z" fill="#e63f6d"/>
<path d="M28.5691 14.9338C28.5691 14.8827 28.5691 14.8827 28.6202 14.8315C28.6202 14.7804 28.6713 14.7804 28.6713 14.7293L30.8706 5.93231H25.7561L25.3469 7.46666H27.3927L25.5515 14.7293C25.5004 14.7804 25.5004 14.8827 25.5004 14.985C25.3469 15.8033 25.5515 16.417 26.1141 16.8773C26.6255 17.3377 27.4439 17.5934 28.5179 17.5934H28.9782L29.3874 16.059C28.7225 15.9567 28.4668 15.5476 28.5691 14.9338ZM31.4843 1.12467C31.2286 0.817803 30.8706 0.664368 30.4614 0.664368C30.0523 0.664368 29.6431 0.817803 29.2851 1.12467C28.9271 1.43154 28.7225 1.78956 28.6713 2.24986C28.6202 2.71017 28.6713 3.06818 28.9271 3.37505C29.1828 3.68193 29.5408 3.83536 29.95 3.83536C30.3591 3.83536 30.7683 3.68193 31.1263 3.37505C31.4843 3.06818 31.6889 2.71017 31.7912 2.24986C31.8423 1.78956 31.74 1.43154 31.4843 1.12467ZM39.9233 15.1896C39.9233 15.1384 39.9233 15.1384 39.9744 15.0873C39.9744 15.0361 39.9744 15.0361 40.0255 14.985L42.2759 5.88116H36.9568C35.8316 5.88116 34.8088 6.18803 33.8881 6.80177C32.9164 7.41551 32.3538 8.18269 32.0981 9.15444L30.8194 14.3201C30.7683 14.4224 30.7683 14.4735 30.7683 14.627C30.6149 15.4964 30.8706 16.2125 31.5355 16.7239C32.2004 17.2865 33.0187 17.5422 34.0416 17.5422H34.5019C35.4225 17.5422 36.2408 17.2354 37.008 16.6216C37.4171 17.2354 38.1332 17.5422 39.2072 17.5422H40.2813L40.6904 16.0079C40.0767 16.0079 39.821 15.701 39.9233 15.1896ZM37.0591 14.3201C36.9568 14.7804 36.65 15.1896 36.2408 15.5476C35.8316 15.9056 35.3713 16.059 34.911 16.059C34.0416 16.059 33.6324 15.6499 33.7858 14.7804C33.7858 14.7804 33.7859 14.7293 33.837 14.6781C33.837 14.627 33.8881 14.5758 33.8881 14.5247L35.3713 8.64299C35.5759 7.87582 35.9851 7.5178 36.65 7.5178H38.8492L37.0591 14.3201ZM57.2103 6.75063C56.5965 6.18803 55.7271 5.93231 54.7042 5.93231H54.2439C53.1187 5.93231 52.0958 6.23918 51.124 6.85292C50.2034 7.46666 49.5897 8.23383 49.3851 9.15444L48.0553 14.3201C48.0042 14.4224 48.0042 14.4735 48.0042 14.627C47.8507 15.4964 48.1065 16.2125 48.7713 16.7751C49.4362 17.3377 50.2546 17.5934 51.3286 17.5934H51.7889C52.9141 17.5934 53.937 17.2865 54.9088 16.6216C55.8805 16.0079 56.4431 15.2407 56.6477 14.3201L57.9263 9.15444L57.9775 8.84757C58.0797 8.02925 57.824 7.31322 57.2103 6.75063ZM54.8576 8.89872L54.8065 9.15444L53.5278 14.3201C53.3744 14.8827 53.1698 15.2918 52.8629 15.5987C52.5561 15.9056 52.2492 16.059 51.8912 16.059C51.5843 16.059 51.3286 15.9056 51.1752 15.6499C51.0217 15.3941 50.9706 15.0361 51.0217 14.5758C51.0217 14.5247 51.0217 14.5247 51.0729 14.4735C51.0729 14.4224 51.124 14.3712 51.124 14.3712L52.4026 9.20559C52.5561 8.69414 52.7607 8.28498 53.0164 7.97811C53.3233 7.67124 53.6301 7.5178 53.9881 7.5178C54.295 7.5178 54.5507 7.62009 54.7042 7.87582C54.8576 8.0804 54.9088 8.43841 54.8576 8.89872ZM66.6721 5.93231C65.4446 5.93231 64.3706 6.23918 63.45 6.90406L63.7057 5.93231H60.637L57.7217 17.5934H60.7904L62.3759 11.2002C62.5805 10.4331 62.9897 9.66589 63.5523 9.00101C64.166 8.33612 64.8309 7.82467 65.5469 7.56895L65.1889 9.1033H66.8767L67.695 5.93231H66.6721ZM14.9645 1.53383C14.2484 0.971238 13.3278 0.664368 12.1004 0.664368C10.8217 0.664368 9.64539 0.971238 8.67363 1.63612C7.70188 2.30101 7.03699 3.17047 6.78127 4.24452L5.50264 9.30788H2.63852C1.56447 9.30788 0.695007 10.1773 0.695007 11.3025H5.04234L3.45684 17.5934H6.52554L8.05989 11.3025H10.8217L9.84997 15.1896C9.79882 15.2407 9.79882 15.343 9.79882 15.4964C9.69653 16.1613 9.79883 16.6728 10.208 17.0308C10.566 17.3888 11.1286 17.5934 11.8958 17.5934H13.1233L13.5324 16.059C13.0721 16.0079 12.9187 15.8033 12.9698 15.343L15.7316 4.24452C15.7316 4.19338 15.7316 4.14223 15.7828 4.03994C15.7828 3.93765 15.8339 3.88651 15.8339 3.83536C15.9362 2.8636 15.6805 2.09643 14.9645 1.53383ZM8.57134 9.30788L10.0034 3.78422C10.1057 3.32391 10.3103 2.96589 10.6683 2.65902C10.9752 2.35215 11.3843 2.19872 11.7935 2.19872C12.2026 2.19872 12.4584 2.35215 12.6629 2.60788C12.8675 2.8636 12.9187 3.22162 12.8675 3.57963L12.8164 3.78422L11.3843 9.30788V9.35903H8.57134V9.30788ZM47.953 5.93231L48.6691 3.22162H45.6004L44.9355 5.93231H43.4011L42.992 7.46666H44.5263L42.6851 14.7293C42.6851 14.7804 42.6851 14.8315 42.6339 14.8827C42.6339 14.985 42.5828 15.0361 42.5828 15.0361C42.4294 15.8033 42.5828 16.417 43.0431 16.8773C43.4523 17.3377 44.1171 17.5422 44.9866 17.5422H46.0607L46.4698 15.9567C45.8561 15.9056 45.5492 15.5476 45.7026 14.8827C45.7026 14.8315 45.7026 14.8315 45.7538 14.7804C45.7538 14.7293 45.7538 14.7293 45.8049 14.6781L47.6462 7.41551H48.9759L49.3851 5.88116H47.953V5.93231Z" fill="#e63f6d"/>
</svg>
