<svg xmlns="http://www.w3.org/2000/svg" width="120" height="48" viewBox="0 0 120 48" fill="none"><g clip-path="url(#clip0_2_254)"><path d="M45.9118 36.823C44.2284 36.441 43.0637 35.2142 42.6716 33.3856C42.4641 32.4251 42.6024 29.7863 42.9023 28.9415C43.3059 27.8073 43.8709 27.1592 44.9317 26.6268L45.8542 26.1639L49.2328 26.1291L52.5997 26.0944V27.0203V27.9577H49.9707C46.892 27.9577 46.3615 28.0503 45.8196 28.7216C45.3123 29.335 45.1623 30.0178 45.1623 31.6034C45.1623 34.4157 45.8196 35.0175 48.8522 35.0175H50.1783V33.7444V32.4713H48.6792H47.1802V31.4876V30.5039H49.89H52.5997L52.5767 33.7213L52.5421 36.9271L49.5441 36.9502C47.5261 36.9618 46.3385 36.9155 45.9118 36.823Z" fill="url(#paint0_linear_2_254)"></path><path d="M52.8504 36.9218C52.8504 36.8986 53.0926 36.3078 53.3809 35.6127C53.6692 34.9292 54.0266 34.0718 54.1765 33.7243C54.3149 33.3767 55.076 31.5811 55.8486 29.7275C56.6212 27.8854 57.2785 26.2982 57.313 26.2171C57.3592 26.1128 57.6936 26.0781 58.6392 26.1013L59.8961 26.136L60.5072 27.5842C61.1645 29.125 63.1133 33.7359 63.9089 35.6011C64.1626 36.2267 64.3818 36.7943 64.3818 36.8523C64.3818 36.9334 63.9436 36.9681 63.1479 36.945L61.9025 36.9102L61.4413 35.7517C61.1876 35.1145 60.9339 34.5237 60.8877 34.4426C60.8186 34.3383 60.2074 34.3036 58.5585 34.3036C55.9639 34.3036 56.2983 34.1298 55.6756 35.8444L55.2951 36.9102L54.0728 36.945C53.404 36.9566 52.8504 36.9566 52.8504 36.9218ZM60.1151 32.3688C60.1151 32.1256 58.57 28.3951 58.5008 28.4762C58.42 28.5689 57.0017 32.2762 57.0017 32.392C57.0017 32.4268 57.7051 32.45 58.5585 32.45C59.4118 32.45 60.1151 32.4152 60.1151 32.3688Z" fill="url(#paint1_linear_2_254)"></path><path d="M64.9626 36.8598C64.9172 36.8252 64.8831 34.3817 64.8831 31.4425V26.106H66.5631H68.2318L69.5259 30.0594C70.2297 32.2263 70.854 34.0474 70.8995 34.105C70.9562 34.1512 71.5806 32.3877 72.307 30.1862L73.6122 26.1636L75.2698 26.129L76.9159 26.0944V31.5232V36.9405H75.8259H74.736L74.8045 32.8833L74.8723 28.8145L73.5328 32.8487L72.2049 36.8828L70.9903 36.9174L69.787 36.952L68.8108 33.9783C68.2773 32.3416 67.6529 30.4859 67.4373 29.8519L67.0399 28.6993L67.1194 32.8257L67.1875 36.9405H66.1091C65.5188 36.9405 64.9966 36.9059 64.9626 36.8598Z" fill="url(#paint2_linear_2_254)"></path><path d="M82.009 36.8251C79.8976 36.4559 78.6707 34.5405 78.6707 31.6444C78.6816 28.7944 79.4995 27.1905 81.3127 26.429C81.8874 26.1868 82.1414 26.1637 84.5626 26.129L87.1827 26.0944V27.0175V27.9521H85.303C83.1808 27.9521 82.4621 28.0675 81.9648 28.5059C81.5558 28.8636 81.2243 29.5905 81.2128 30.1213V30.4905H84.1978H87.1936L87.1603 31.4482L87.127 32.3944L84.1094 32.429L81.0803 32.4521L81.1578 32.9482C81.2685 33.7098 81.6666 34.4366 82.0973 34.702C82.4403 34.9097 82.7386 34.9444 84.8058 34.9905L87.127 35.0482L87.1603 36.0058L87.1936 36.952L84.8941 36.9405C83.6339 36.9289 82.3296 36.8828 82.009 36.8251Z" fill="url(#paint3_linear_2_254)"></path><path d="M88.8858 35.9713V34.9905H92.0442C95.3382 34.9905 95.5981 34.9558 95.9814 34.4828C96.1395 34.2867 96.1728 33.5366 96.0493 33.1328C95.9021 32.6828 95.3498 32.5674 93.3645 32.5674C92.3488 32.5674 91.2211 32.5098 90.8602 32.4405C89.2582 32.1405 88.5587 31.3328 88.457 29.6713C88.3667 28.0328 88.8749 26.9714 90.0365 26.4406C90.6234 26.1752 90.7136 26.1637 94.3341 26.129L98.0346 26.0944L98.0007 27.0521L97.9667 28.0098L94.7181 28.0675L91.4579 28.1252L91.1309 28.5059C90.6118 29.0944 90.6906 30.052 91.289 30.3982C91.4579 30.5021 92.3379 30.5713 94.0749 30.6175C96.4327 30.6752 96.647 30.6983 97.1546 30.9405C98.1133 31.4136 98.4742 32.1636 98.4742 33.6405C98.4742 34.7482 98.3277 35.302 97.888 35.8559C97.1091 36.802 96.3533 36.952 92.1344 36.952H88.8858V35.9713Z" fill="url(#paint4_linear_2_254)"></path><path d="M42.7642 17.0133V11.5903L46.4632 11.6249C50.5176 11.6595 50.551 11.671 51.2952 12.421C51.8284 12.9633 52.0283 13.5172 52.0283 14.4287C52.0172 15.3979 51.7617 15.9979 51.0952 16.5979L50.651 16.9902L51.0952 17.3018C51.7617 17.7633 52.0394 18.3864 52.0394 19.5056C52.0394 21.1094 51.484 21.8825 50.04 22.2748C49.5179 22.4132 48.6959 22.4479 46.0744 22.4479H42.7642V17.0133ZM49.0403 20.3132C49.4735 20.1286 49.6512 19.7825 49.6512 19.1133C49.6512 18.1556 49.0403 17.9248 46.7076 17.971L45.0414 18.0056L45.0081 19.0902C44.9969 19.6902 44.9969 20.244 45.0303 20.3363C45.1192 20.5671 48.5182 20.544 49.0403 20.3132ZM48.9736 15.8595C49.9067 15.5248 49.8511 13.9672 48.8959 13.6787C48.6515 13.5979 47.7851 13.5633 46.7631 13.5864L45.0414 13.621L45.0081 14.6364C44.9859 15.2018 44.9969 15.7325 45.0303 15.8249C45.0747 15.9518 45.4302 15.9864 46.852 15.9864C47.8629 15.9864 48.7737 15.9287 48.9736 15.8595Z" fill="url(#paint5_linear_2_254)"></path><path fill-rule="evenodd" clip-rule="evenodd" d="M15.5014 12.8454L9.63769 18.938C9.49109 19.0903 9.42826 19.2644 9.42826 19.4603C9.42826 19.6561 9.49109 19.8519 9.63769 20.0042L15.5014 26.0969C15.627 26.2274 15.8155 26.3144 16.004 26.3144C16.1925 26.3144 16.3809 26.2274 16.5275 26.0969L22.3912 20.0042C22.5378 19.8519 22.6006 19.6561 22.6006 19.4603C22.6006 19.2644 22.5378 19.0903 22.3912 18.938L16.5275 12.8454C16.3809 12.6931 16.1925 12.6278 16.004 12.6278C15.8155 12.6278 15.6479 12.6931 15.5014 12.8454ZM16.9673 12.3667L19.3128 14.8255C21.1138 13.3676 22.454 12.519 22.454 12.519L22.5797 12.432L22.6844 12.519C22.7263 12.5408 35.2704 20.7005 35.2704 28.4904C35.2704 30.4052 34.5374 32.1242 33.3856 33.3645C32.2129 34.6265 30.6004 35.3881 28.8203 35.3881C27.501 35.3881 26.2236 34.9965 25.1346 34.2784C24.3178 33.7562 23.6268 33.0599 23.1242 32.2548C23.6896 36.6937 28.2549 36.9548 28.7784 36.9548H28.8203V37.1724V37.39H22.9985H16.339V37.1724V36.9548H16.3809C16.9045 36.9548 21.4488 36.6937 22.0352 32.2548C21.5116 33.0599 20.8205 33.7562 20.0248 34.2784C18.9358 34.9965 17.6374 35.3881 16.339 35.3881C14.559 35.3881 12.9465 34.6265 11.7737 33.3645C10.601 32.1242 9.88898 30.4052 9.88898 28.4904C9.88898 27.533 10.0775 26.5538 10.4125 25.5746C10.7057 24.7043 11.1455 23.8557 11.6481 23.007L9.17696 20.4611C8.92566 20.1783 8.8 19.8301 8.8 19.4603C8.8 19.1121 8.92566 18.7422 9.17696 18.4811L15.0616 12.3667C15.3129 12.1056 15.6689 11.975 16.004 11.975C16.36 11.975 16.695 12.1056 16.9673 12.3667Z" fill="url(#paint6_linear_2_254)"></path><path d="M56.3921 22.3326C55.2527 22.1021 54.1246 21.2031 53.5777 20.085C53.2017 19.3243 53.0421 18.4022 53.0421 17.0421C53.0536 14.4026 53.817 12.8581 55.5375 12.0283L56.2896 11.671L59.0585 11.6364L61.8159 11.5903V12.5124V13.4229L59.5712 13.4806C57.5772 13.5267 57.2581 13.5612 56.8593 13.7687C56.6086 13.907 56.3124 14.103 56.2099 14.2298C55.9706 14.4949 55.6629 15.3363 55.6629 15.7166V15.9932H58.7395H61.8159V16.9499V17.8951L59.4003 17.8605C58.0671 17.8489 56.677 17.8605 56.3238 17.9066L55.6629 17.9757V18.4483C55.6629 19.1053 56.0503 19.8545 56.5517 20.1657C56.9505 20.4193 57.0986 20.4308 59.4003 20.4654L61.8159 20.5V21.4797V22.4479L59.3434 22.4363C57.976 22.4248 56.6428 22.3787 56.3921 22.3326Z" fill="url(#paint7_linear_2_254)"></path><path d="M66.299 22.3325C65.2703 22.1133 64.3534 21.3518 63.895 20.3132C63.649 19.7479 63.6378 19.6325 63.6043 15.6748L63.5707 11.6018H64.6888H65.807L65.8405 15.4441C65.8741 19.0556 65.8853 19.2979 66.0977 19.6787C66.5338 20.4287 66.8692 20.544 68.9825 20.5786L70.8497 20.6248V21.444L70.8609 22.2748L71.1404 21.5825C71.297 21.2017 72.0014 19.494 72.7058 17.7748C73.4099 16.0672 74.2714 13.9672 74.6176 13.1249L75.255 11.5903L76.4851 11.6249L77.7037 11.6595L78.3968 13.3326C78.777 14.2556 79.7613 16.6325 80.5888 18.6287C81.4157 20.6248 82.1094 22.3094 82.1203 22.3555C82.1427 22.4017 81.5949 22.4479 80.8902 22.4479H79.6269L79.1686 21.2017L78.7104 19.9671L76.4179 19.9325L74.1146 19.9095L73.6787 21.144L73.2314 22.3902L69.9999 22.4017C68.2222 22.4132 66.5561 22.3786 66.299 22.3325ZM77.0778 17.8671L77.8829 17.8095L77.6813 17.2671C76.4736 14.0595 76.407 13.8979 76.3059 14.071C76.2502 14.1633 75.9149 15.0518 75.5571 16.0325C75.1322 17.1979 74.9421 17.844 75.0317 17.8787C75.1994 17.9479 76.1158 17.9479 77.0778 17.8671Z" fill="url(#paint8_linear_2_254)"></path><path d="M83.8797 18.0056V13.5633L82.1626 13.5287L80.4339 13.4941L80.4 12.548L80.3661 11.5903H85.0093H89.6416V12.5133C89.6416 13.171 89.5962 13.4364 89.5059 13.4479C89.4266 13.4595 89.2576 13.471 89.1328 13.4826C89.0086 13.4941 88.3085 13.5172 87.5853 13.5287L86.2522 13.5518L86.2298 17.971L86.1958 22.3786L85.0432 22.4132L83.8797 22.4479V18.0056Z" fill="url(#paint9_linear_2_254)"></path><path d="M90.6445 17.0133V11.5903H93.8995C97.3888 11.5903 97.8662 11.648 98.6554 12.1903C98.8774 12.3518 99.1552 12.721 99.344 13.0787C99.6109 13.6326 99.6442 13.8403 99.6442 14.7749C99.6442 15.5595 99.5885 15.9749 99.433 16.3441C99.1885 16.9441 98.4333 17.6825 97.9776 17.7864C97.7888 17.821 97.6442 17.8671 97.6442 17.9017C97.6442 18.0056 100.033 22.0902 100.1 22.0902C100.133 22.0902 100.833 20.4402 101.644 18.4325C102.467 16.4133 103.422 14.0595 103.778 13.2056L104.422 11.648L105.633 11.6133C106.533 11.5903 106.856 11.6249 106.9 11.7287C106.933 11.8095 107.911 14.2095 109.078 17.0595C110.244 19.8979 111.2 22.2748 111.2 22.3325C111.2 22.3902 110.667 22.4363 110 22.4363H108.811L108.311 21.1556L107.811 19.8748H105.6C104.389 19.8864 103.356 19.9209 103.311 19.9787C103.267 20.0248 103.155 20.3018 103.055 20.5902C102.956 20.8787 102.767 21.4094 102.644 21.7786L102.411 22.4363H100.044H97.6774L96.544 20.3018L95.3997 18.1671H94.1331H92.8666L92.8442 20.2787L92.8109 22.3786L91.7331 22.4132L90.6445 22.4479V17.0133ZM106.933 17.8325C107.022 17.7864 106.811 17.1056 106.3 15.8018C105.578 13.8979 105.544 13.8518 105.422 14.1864C105.345 14.3826 105.1 15.0518 104.867 15.6864C104.633 16.321 104.355 17.0364 104.267 17.2671C104.166 17.5094 104.089 17.7171 104.089 17.7518C104.089 17.8787 106.733 17.9594 106.933 17.8325ZM96.4774 16.0902C97.3222 15.8941 97.6774 14.9825 97.2557 14.1402C97.0112 13.6441 96.5888 13.5518 94.633 13.5518H92.8666V14.8787V16.2056H94.455C95.3222 16.2056 96.233 16.1479 96.4774 16.0902Z" fill="url(#paint10_linear_2_254)"></path></g><defs><linearGradient id="paint0_linear_2_254" x1="47.5862" y1="26.0944" x2="47.5862" y2="36.952" gradientUnits="userSpaceOnUse"><stop stop-color="#2998FF"></stop><stop offset="1" stop-color="#4AB3FF"></stop></linearGradient><linearGradient id="paint1_linear_2_254" x1="58.6161" y1="26.0944" x2="58.6161" y2="36.952" gradientUnits="userSpaceOnUse"><stop stop-color="#2998FF"></stop><stop offset="1" stop-color="#4AB3FF"></stop></linearGradient><linearGradient id="paint2_linear_2_254" x1="70.8995" y1="26.0944" x2="70.8995" y2="36.952" gradientUnits="userSpaceOnUse"><stop stop-color="#2998FF"></stop><stop offset="1" stop-color="#4AB3FF"></stop></linearGradient><linearGradient id="paint3_linear_2_254" x1="82.9318" y1="26.0944" x2="82.9318" y2="36.952" gradientUnits="userSpaceOnUse"><stop stop-color="#2998FF"></stop><stop offset="1" stop-color="#4AB3FF"></stop></linearGradient><linearGradient id="paint4_linear_2_254" x1="93.4605" y1="26.0944" x2="93.4605" y2="36.952" gradientUnits="userSpaceOnUse"><stop stop-color="#2998FF"></stop><stop offset="1" stop-color="#4AB3FF"></stop></linearGradient><linearGradient id="paint5_linear_2_254" x1="47.4019" y1="11.5903" x2="47.4019" y2="22.4479" gradientUnits="userSpaceOnUse"><stop stop-color="#2998FF"></stop><stop offset="1" stop-color="#4AB3FF"></stop></linearGradient><linearGradient id="paint6_linear_2_254" x1="22.0352" y1="11.975" x2="22.0352" y2="37.39" gradientUnits="userSpaceOnUse"><stop stop-color="#2998FF"></stop><stop offset="1" stop-color="#4AB3FF"></stop></linearGradient><linearGradient id="paint7_linear_2_254" x1="57.4291" y1="11.5903" x2="57.4291" y2="22.4479" gradientUnits="userSpaceOnUse"><stop stop-color="#2998FF"></stop><stop offset="1" stop-color="#4AB3FF"></stop></linearGradient><linearGradient id="paint8_linear_2_254" x1="72.8461" y1="11.5903" x2="72.8461" y2="22.4479" gradientUnits="userSpaceOnUse"><stop stop-color="#2998FF"></stop><stop offset="1" stop-color="#4AB3FF"></stop></linearGradient><linearGradient id="paint9_linear_2_254" x1="85.0042" y1="11.5903" x2="85.0042" y2="22.4479" gradientUnits="userSpaceOnUse"><stop stop-color="#2998FF"></stop><stop offset="1" stop-color="#4AB3FF"></stop></linearGradient><linearGradient id="paint10_linear_2_254" x1="100.922" y1="11.5903" x2="100.922" y2="22.4479" gradientUnits="userSpaceOnUse"><stop stop-color="#2998FF"></stop><stop offset="1" stop-color="#4AB3FF"></stop></linearGradient><clipPath id="clip0_2_254"><rect width="102.4" height="26.4" fill="white" transform="translate(8.8 11.2)"></rect></clipPath></defs></svg>