<svg width="25" height="25" viewBox="0 0 25 25" fill="none" xmlns="http://www.w3.org/2000/svg">
<path d="M24.422 10.884L21.671 11.204C21.5299 9.98703 21.1468 8.8106 20.544 7.744L22.96 6.384C22.1126 4.87949 20.951 3.57518 19.5543 2.55984C18.1576 1.5445 16.5586 0.841948 14.866 0.5L14.322 3.218C13.7228 3.09783 13.1132 3.03687 12.502 3.036C11.881 3.036 11.272 3.098 10.684 3.218L10.139 0.5C8.44623 0.841324 6.84693 1.54363 5.45015 2.55903C4.05336 3.57444 2.89193 4.87907 2.04503 6.384L4.46103 7.744C3.85737 8.81019 3.47412 9.98682 3.33403 11.204L0.584027 10.884C0.380831 12.5992 0.551843 14.3381 1.08528 15.9809C1.61872 17.6237 2.50192 19.1313 3.67403 20.4L5.71403 18.523C6.54272 19.4229 7.54166 20.1496 8.65303 20.661L7.49503 23.182C9.06493 23.9033 10.7724 24.2761 12.5 24.275C14.288 24.275 15.98 23.881 17.504 23.182L16.347 20.662C17.459 20.1508 18.4581 19.4233 19.286 18.522L21.326 20.4C23.3701 18.1872 24.5037 15.2844 24.5 12.272C24.504 11.8082 24.4773 11.3446 24.422 10.884ZM12.502 19.658C8.43103 19.658 5.11603 16.343 5.11603 12.272C5.11603 8.2 8.43103 4.886 12.503 4.886C16.574 4.886 19.889 8.2 19.889 12.272C19.889 16.344 16.574 19.658 12.503 19.658H12.502ZM12.46 7.646L8.49003 11.472C8.08678 11.8635 7.85462 12.3985 7.84413 12.9605C7.83364 13.5224 8.04567 14.0657 8.43403 14.472C9.24403 15.312 10.594 15.337 11.434 14.528L12.087 13.9C12.1554 14.4615 12.0306 15.0296 11.733 15.5108C11.4355 15.9919 10.983 16.3574 10.45 16.547L10.438 16.553C10.3943 16.5701 10.3591 16.6039 10.3402 16.6469C10.3214 16.69 10.3204 16.7387 10.3375 16.7825C10.3546 16.8263 10.3884 16.8614 10.4315 16.8803C10.4745 16.8991 10.5233 16.9001 10.567 16.883C11.7924 16.4492 13.1296 16.4492 14.355 16.883C14.3771 16.8909 14.4006 16.8944 14.4241 16.8932C14.4475 16.892 14.4705 16.8861 14.4917 16.876C14.5129 16.8658 14.5319 16.8516 14.5476 16.8341C14.5632 16.8166 14.5753 16.7962 14.583 16.774C14.5971 16.7327 14.5955 16.6877 14.5785 16.6475C14.5615 16.6073 14.5304 16.5748 14.491 16.556C14.491 16.553 14.485 16.55 14.475 16.546C13.9421 16.3566 13.4897 15.9913 13.1921 15.5103C12.8946 15.0294 12.7697 14.4614 12.838 13.9L13.488 14.528C13.8943 14.9164 14.4376 15.1284 14.9996 15.1179C15.5615 15.1074 16.0965 14.8752 16.488 14.472C16.8765 14.0658 17.0887 13.5226 17.0784 12.9607C17.0681 12.3987 16.8361 11.8636 16.433 11.472L12.46 7.646Z" fill="#3B6F6D"/>
</svg>
