<svg width="25" height="25" viewBox="0 0 25 25" fill="none" xmlns="http://www.w3.org/2000/svg">
<path d="M1.865 17.2678C1.46747 17.4009 1.12182 17.6556 0.876883 17.9958C0.631945 18.336 0.500108 18.7446 0.5 19.1638L0.5 22.4998C0.5 23.0303 0.710714 23.539 1.08579 23.9141C1.46086 24.2891 1.96957 24.4998 2.5 24.4998H11.323L5.868 15.9278L1.865 17.2678ZM18.48 15.9278L13.025 24.4998H21.851C22.3814 24.4998 22.8901 24.2891 23.2652 23.9141C23.6403 23.539 23.851 23.0303 23.851 22.4998V19.1648C23.8511 18.7455 23.7194 18.3366 23.4744 17.9962C23.2295 17.6558 22.8837 17.401 22.486 17.2678L18.48 15.9278ZM15.552 16.2078C15.5522 16.1238 15.5312 16.041 15.491 15.9672C15.4507 15.8934 15.3926 15.831 15.3218 15.7856C15.251 15.7403 15.17 15.7135 15.0861 15.7078C15.0022 15.702 14.9183 15.7175 14.842 15.7528L12.176 16.9848L9.509 15.7528C9.4328 15.7176 9.34894 15.7021 9.26516 15.7078C9.18138 15.7134 9.10038 15.7401 9.02964 15.7854C8.9589 15.8306 8.90069 15.8929 8.86038 15.9666C8.82007 16.0402 8.79896 16.1229 8.799 16.2068V18.4798C8.79896 18.5638 8.82007 18.6464 8.86038 18.7201C8.90069 18.7938 8.9589 18.8561 9.02964 18.9013C9.10038 18.9466 9.18138 18.9733 9.26516 18.9789C9.34894 18.9846 9.4328 18.9691 9.509 18.9338L12.176 17.7018L14.842 18.9338C14.9182 18.9691 15.0021 18.9846 15.0858 18.9789C15.1696 18.9733 15.2506 18.9466 15.3214 18.9013C15.3921 18.8561 15.4503 18.7938 15.4906 18.7201C15.5309 18.6464 15.552 18.5638 15.552 18.4798V16.2068V16.2078ZM18.495 7.51785C18.5169 7.12423 18.4521 6.73061 18.305 6.36485C18.1563 5.99676 17.9298 5.66518 17.641 5.39285C17.604 5.26685 17.551 5.14985 17.507 5.02785C17.238 2.58985 15.558 0.943847 12.864 0.561847C12.458 0.504224 12.0474 0.486806 11.638 0.509847C10.838 0.540847 10.051 0.729847 9.328 1.06485C8.60758 1.39698 7.96114 1.87032 7.427 2.45685C6.78783 3.20325 6.43762 4.15417 6.44 5.13685C6.44 5.14985 6.43 5.15985 6.426 5.17185C6.399 5.24785 6.376 5.32285 6.354 5.39885C6.06738 5.67007 5.84261 5.99989 5.695 6.36585C5.549 6.73085 5.485 7.12085 5.505 7.51185C5.478 7.93185 5.555 8.35385 5.728 8.73985C5.903 9.12585 6.17 9.46585 6.508 9.73085C7.303 12.0878 9.3 14.4998 12.004 14.4998C14.708 14.4998 16.692 12.0898 17.49 9.73285C17.826 9.47094 18.0936 9.13162 18.27 8.74385C18.444 8.35885 18.52 7.93785 18.494 7.51785H18.495ZM16.675 8.46585C16.5405 8.49605 16.4163 8.56125 16.315 8.65485C16.2156 8.74713 16.143 8.86463 16.105 8.99485C15.524 10.9828 13.932 12.9938 12.006 12.9938C10.081 12.9938 8.477 10.9808 7.894 8.99385C7.86071 8.86686 7.79286 8.75159 7.698 8.66085C7.60125 8.56865 7.48134 8.50438 7.351 8.47485C7.23951 8.34332 7.15552 8.19077 7.10399 8.02623C7.05246 7.86168 7.03444 7.68848 7.051 7.51685C7.02 7.17085 7.126 6.82685 7.347 6.55385C7.43761 6.51082 7.51882 6.45033 7.586 6.37585C7.808 6.38085 8.051 6.36585 8.416 6.33885C9.78301 6.26877 11.0783 5.70567 12.062 4.75385C12.5384 5.34919 13.145 5.82743 13.835 6.15185C14.5307 6.47945 15.2911 6.64656 16.06 6.64085H16.066C16.271 6.65085 16.476 6.63185 16.674 6.58385C16.87 6.85385 16.964 7.18285 16.939 7.51385C16.9635 7.85213 16.8702 8.18847 16.675 8.46585Z" fill="#3B6F6D"/>
</svg>
