<svg width="121" height="28" fill="none" xmlns="http://www.w3.org/2000/svg"><g clip-path="url(#a)"><path d="M27.924 3.027c-9.7 0-17.5 4.6-17.5 10.3 0 2.4 1.4 4.6 3.8 6.4-1.2-1.5-1.9-3.1-1.9-4.8 0-5.9 7.7-10.7 17.2-10.7 6.1 0 11.5 2 14.5 5-2.8-3.7-8.9-6.2-16.1-6.2z" fill="#8CC23C"/><path d="M26.324 16.229c.7 0 1.3-.2 1.7-.5.5-.3.8-.8.8-1.4 0-1.2-.4-2.3-1.1-3.3-.8-1-1.7-1.7-3-2.3-.8-.3-1.8-.5-2.8-.5-2.1 0-3.8.7-5.1 2-1.3 1.3-2 3-2 4.9 0 1.9.7 3.5 2.1 4.8 1.4 1.3 3.1 2 5.2 2 1.1 0 2.2-.2 3.2-.5 1.2-.4 2.1-.9 2.7-1.6.3-.4.5-.8.5-1.1 0-1-.6-1.5-1.7-1.5-.2 0-.9.2-1.9.6-1 .4-1.9.6-2.6.6-.9 0-1.6-.2-2.2-.6-.6-.4-.9-1-1-1.7h7.2v.1zm-6.2-4.2c.5-.4 1.1-.6 1.9-.6.7 0 1.4.2 1.9.6.5.4.8 1 .8 1.6h-5.6c.1-.6.5-1.2 1-1.6zm11.1 7.9c1.3 1.3 3 2 5.1 2 1.3 0 2.3-.2 3.2-.6 1.2-.5 1.8-1.2 1.8-2 0-.5-.2-.9-.5-1.2-.3-.3-.7-.5-1.2-.5-.3 0-.7.1-1.3.3-.5.2-1.1.3-1.6.3-1 0-1.8-.3-2.3-.9-.5-.6-.7-1.3-.7-2.3 0-.9.2-1.7.7-2.3.5-.7 1.3-1 2.2-1 .6 0 1.2.1 1.7.3.5.2 1 .3 1.3.3.5 0 .9-.2 1.3-.5.3-.3.5-.7.5-1.2 0-.9-.6-1.6-1.7-2-.9-.3-1.9-.5-3-.5-2.2 0-4 .6-5.3 1.9-1.3 1.3-2 2.9-2 4.9-.1 2.2.5 3.8 1.8 5z" fill="#fff"/><path d="M43.324 20.029c1.4 1.3 3.1 2 5.2 2s3.9-.7 5.2-2c1.3-1.3 1.9-2.9 1.9-4.9 0-2-.7-3.6-2-4.9-1.3-1.3-3-2-5.2-2-2.1 0-3.8.7-5.2 2-1.3 1.3-2 3-2 4.9.2 1.9.8 3.6 2.1 4.9zm3.1-7.1c.5-.7 1.2-1 2.1-1 .9 0 1.6.3 2.1 1 .5.6.7 1.3.7 2.2 0 .9-.2 1.6-.7 2.2-.5.7-1.2 1-2.1 1-.9 0-1.6-.3-2.1-1-.5-.6-.7-1.3-.7-2.2 0-.9.2-1.6.7-2.2z" fill="#fff"/><path d="M61.624 7.928h1.9c2 0 3 .8 3 2.3 0 1.5-1 2.3-3 2.3h-1.9v-4.6zm0 11.1v-3h2.9c2.1 0 3.7-.5 4.9-1.5 1.2-1 1.8-2.5 1.8-4.3 0-1.9-.7-3.3-2-4.4-1.2-1-2.9-1.5-5-1.5h-3.9c-1.1 0-1.9.2-2.3.6-.4.4-.7 1.1-.7 2.2v11.9c0 1.9.7 2.8 2.2 2.8 1.4 0 2.1-.9 2.1-2.8zm14.8-6c.5-.6 1.2-1 2.1-1 .9 0 1.6.3 2.1 1 .4.6.6 1.3.6 2.1s-.2 1.6-.6 2.1c-.5.7-1.2 1-2.1 1-.9 0-1.6-.3-2.1-1-.4-.6-.6-1.3-.6-2.1-.1-.9.2-1.6.6-2.1zm6.9 8.8c1.4 0 2.1-.9 2.1-2.8v-7.7c0-1.9-.7-2.8-2.1-2.8-.9 0-1.5.4-2 1.2-.9-.9-2-1.4-3.4-1.4-1.9 0-3.5.7-4.8 2.1-1.1 1.4-1.7 2.9-1.7 4.7 0 1.8.6 3.3 1.7 4.6 1.2 1.4 2.8 2.1 4.7 2.1 1.5 0 2.7-.5 3.6-1.4.3.9 1 1.4 1.9 1.4zm11.9-11.8-2.6 6.1-2.4-5.8c-.3-.6-.5-1.1-.7-1.3-.3-.4-.8-.5-1.4-.5-.6 0-1.1.2-1.5.5-.4.3-.6.8-.6 1.4 0 .4.1.7.2 1.1l4.3 9-1.7 3.4c-.3.5-.4.9-.4 1.3 0 .6.2 1 .6 1.3.4.3.9.5 1.5.5.7 0 1.4-.5 1.9-1.5l6.4-13.9c.2-.5.3-.9.3-1.3 0-1.2-.7-1.8-2.1-1.8-.7 0-1.4.5-1.8 1.5zm14.3 8h-4.1l5.6-6.5c.6-.7.9-1.2.9-1.7s-.2-.8-.7-1c-.4-.1-1.1-.2-2-.2h-6.8c-1.8 0-2.7.6-2.7 1.7 0 1.2.9 1.8 2.7 1.8h3.6l-5.8 6.8c-.4.5-.6 1-.6 1.5 0 .8.7 1.2 2.2 1.2h7.7c1.8 0 2.7-.6 2.7-1.8 0-1.2-.9-1.8-2.7-1.8z" fill="#8CC23C"/></g><defs><clipPath id="a"><path fill="#fff" transform="translate(.424 .828)" d="M0 0h120v27H0z"/></clipPath></defs></svg>