<svg width="61" height="28" fill="none" xmlns="http://www.w3.org/2000/svg"><g clip-path="url(#a)"><path d="M23.712 25.328c6.075 0 11-4.925 11-11s-4.925-11-11-11-11 4.925-11 11 4.925 11 11 11z" fill="#EE0005"/><path d="M37.412 25.328c6.075 0 11-4.925 11-11s-4.925-11-11-11-11 4.925-11 11 4.925 11 11 11z" fill="#0098E2"/><path d="M26.412 14.329c0 3.5 1.6 6.6 4.2 8.6 2.5-2 4.2-5.1 4.2-8.6s-1.6-6.6-4.2-8.6c-2.6 2-4.2 5.1-4.2 8.6z" fill="#6C69BF"/></g><defs><clipPath id="a"><path fill="#fff" transform="translate(.312 .828)" d="M0 0h60v27H0z"/></clipPath></defs></svg>