<svg width="36" height="28" fill="none" xmlns="http://www.w3.org/2000/svg"><g clip-path="url(#a)"><path d="M34.498 27.449v.07h.065a.068.068 0 0 0 .035-.009.031.031 0 0 0 .013-.026.03.03 0 0 0-.013-.027.063.063 0 0 0-.035-.008h-.065zm.065-.05a.12.12 0 0 1 .078.023.075.075 0 0 1 .028.062.07.07 0 0 1-.022.053.106.106 0 0 1-.063.026l.086.1h-.066l-.08-.1h-.026v.1h-.056V27.4h.121zm-.017.354a.217.217 0 0 0 .219-.22.224.224 0 0 0-.064-.157.217.217 0 0 0-.154-.064.228.228 0 0 0-.158.064.215.215 0 0 0-.047.07.212.212 0 0 0-.017.086c0 .03.006.06.017.086a.211.211 0 0 0 .118.117.216.216 0 0 0 .087.018m0-.504a.286.286 0 0 1 .288.283.29.29 0 0 1-.578 0 .276.276 0 0 1 .176-.26.289.289 0 0 1 .113-.023m-26.57-1.011c0-.501.328-.912.864-.912.513 0 .858.393.858.912 0 .518-.345.911-.858.911-.536 0-.864-.411-.864-.912zm2.306 0v-1.424h-.62v.345c-.196-.256-.494-.417-.899-.417-.798 0-1.424.626-1.424 1.495 0 .87.626 1.496 1.424 1.496.405 0 .703-.16.9-.417v.345h.62v-1.424zm20.925 0c0-.501.328-.912.865-.912.512 0 .857.393.857.912 0 .518-.345.911-.857.911-.537 0-.865-.411-.865-.912zm2.307 0V23.67h-.62v1.49c-.196-.257-.495-.418-.9-.418-.798 0-1.424.626-1.424 1.495 0 .87.626 1.496 1.424 1.496.406 0 .704-.16.9-.417v.345h.62v-1.424zm-15.546-.942c.4 0 .656.25.721.691h-1.478c.067-.411.316-.69.757-.69m.012-.555c-.834 0-1.418.607-1.418 1.495 0 .906.608 1.496 1.46 1.496.43 0 .822-.107 1.168-.399l-.304-.459a1.36 1.36 0 0 1-.828.298c-.4 0-.763-.185-.852-.697h2.115c.006-.077.012-.155.012-.238-.006-.888-.555-1.496-1.352-1.496zm7.478 1.495c0-.5.328-.911.864-.911.512 0 .858.393.858.912 0 .518-.346.911-.858.911-.536 0-.864-.411-.864-.912zm2.305 0v-1.423h-.619v.345c-.197-.256-.494-.417-.9-.417-.798 0-1.424.626-1.424 1.495 0 .87.626 1.496 1.425 1.496.405 0 .702-.16.9-.417v.345h.618v-1.424zm-5.802 0c0 .865.601 1.496 1.519 1.496.429 0 .715-.095 1.024-.34l-.297-.5a1.252 1.252 0 0 1-.745.256c-.495-.006-.858-.363-.858-.912 0-.548.363-.905.858-.911.268 0 .512.09.745.256l.297-.5c-.31-.245-.595-.34-1.024-.34-.918 0-1.52.631-1.52 1.495zm7.983-1.495c-.357 0-.59.167-.75.417v-.345h-.614v2.847h.62v-1.596c0-.471.202-.733.607-.733.126 0 .257.018.388.072l.19-.584a1.32 1.32 0 0 0-.44-.078zm-16.6.298c-.297-.196-.708-.298-1.16-.298-.722 0-1.187.346-1.187.912 0 .464.346.75.983.84l.293.042c.34.047.5.137.5.298 0 .22-.227.345-.65.345-.429 0-.738-.137-.947-.298l-.292.482c.34.25.769.37 1.233.37.823 0 1.3-.387 1.3-.93 0-.5-.376-.762-.996-.851l-.291-.043c-.269-.035-.484-.088-.484-.28 0-.208.203-.333.543-.333.363 0 .715.137.888.245l.268-.5zm7.99-.298a.838.838 0 0 0-.75.417v-.345h-.613v2.847h.619v-1.596c0-.471.202-.733.608-.733.125 0 .256.018.387.072l.19-.584a1.32 1.32 0 0 0-.44-.078zm-5.284.072h-1.013v-.864h-.626v.864h-.577v.566h.577v1.299c0 .66.257 1.054.99 1.054.268 0 .577-.083.774-.22l-.179-.53a1.145 1.145 0 0 1-.548.16c-.31 0-.41-.19-.41-.477V25.38h1.012v-.566zM6.79 27.66v-1.787c0-.673-.428-1.126-1.12-1.132-.363-.006-.738.107-1 .507-.197-.316-.507-.507-.942-.507-.304 0-.601.09-.834.423v-.351h-.62v2.847H2.9v-1.578c0-.495.274-.757.697-.757.412 0 .62.268.62.75v1.585h.626v-1.578c0-.495.285-.757.697-.757.422 0 .625.268.625.75v1.585h.626z" fill="#fff"/><path d="M34.88 18.192v-.417h-.109l-.125.286-.125-.286h-.109v.416h.077v-.313l.117.27h.08l.117-.27v.314h.077zm-.688 0v-.346h.139v-.07h-.355v.07h.14v.346h.076z" fill="#F79311"/><path d="M22.55 19.98h-9.385V3.113h9.385V19.98z" fill="#FF4C00"/><path d="M13.766 11.545c0-3.421 1.602-6.47 4.097-8.433A10.68 10.68 0 0 0 11.234.818C5.311.818.51 5.621.51 11.545s4.802 10.727 10.725 10.727a10.68 10.68 0 0 0 6.629-2.294 10.708 10.708 0 0 1-4.097-8.433z" fill="#D7141A"/><path d="M35.207 11.545c0 5.924-4.801 10.727-10.725 10.727a10.683 10.683 0 0 1-6.63-2.294 10.708 10.708 0 0 0 4.098-8.433c0-3.421-1.602-6.47-4.097-8.433A10.683 10.683 0 0 1 24.482.818c5.924 0 10.725 4.803 10.725 10.727z" fill="#F7931A"/></g><defs><clipPath id="a"><path fill="#fff" transform="translate(.496 .828)" d="M0 0h34.709v27H0z"/></clipPath></defs></svg>