<svg width="121" height="28" fill="none" xmlns="http://www.w3.org/2000/svg"><g clip-path="url(#a)"><g clip-path="url(#b)"><path d="m59.788 2.456-5.335 24.992h-6.459L53.33 2.456h6.458zm27.183 16.172 3.426-9.378 1.966 9.38h-5.392v-.002zm7.245 8.819h5.953L94.946 2.456h-5.504c-1.235 0-2.302.73-2.752 1.853l-9.716 23.139h6.796l1.348-3.707h8.312l.786 3.706zm-16.905-8.145c.056-6.57-9.098-6.963-9.042-9.883 0-.9.899-1.854 2.752-2.078.899-.113 3.482-.225 6.346 1.123l1.124-5.28c-1.573-.561-3.539-1.123-6.066-1.123-6.402 0-10.895 3.37-10.895 8.255-.057 3.595 3.2 5.617 5.672 6.796 2.527 1.237 3.37 2.023 3.37 3.09 0 1.684-2.022 2.414-3.875 2.47-3.258.056-5.111-.898-6.628-1.572l-1.18 5.503c1.517.674 4.325 1.292 7.19 1.348 6.795-.111 11.232-3.482 11.232-8.649zM50.578 2.456 40.132 27.448H33.28l-5.167-19.94c-.337-1.234-.562-1.684-1.517-2.19-1.572-.842-4.1-1.628-6.346-2.133l.168-.73h11.008c1.404 0 2.64.954 2.977 2.527l2.696 14.434 6.74-17.018h6.739" fill="#fff"/></g></g><defs><clipPath id="a"><path fill="#fff" transform="translate(.256 .828)" d="M0 0h120v27H0z"/></clipPath><clipPath id="b"><path fill="#fff" transform="translate(.256 .828)" d="M0 0h120v27H0z"/></clipPath></defs></svg>